<?xml version="1.0" encoding="UTF-8" standalone="no"?>
<!DOCTYPE svg PUBLIC "-//W3C//DTD SVG 1.1//EN" "http://www.w3.org/Graphics/SVG/1.1/DTD/svg11.dtd">
<svg width="100%" height="100%" viewBox="0 0 800 800" version="1.1" xmlns="http://www.w3.org/2000/svg" xmlns:xlink="http://www.w3.org/1999/xlink" xml:space="preserve" xmlns:serif="http://www.serif.com/" style="fill-rule:evenodd;clip-rule:evenodd;stroke-linejoin:round;stroke-miterlimit:2;">
    <g transform="matrix(1,0,0,1,1.16892,28.7031)">
        <g id="branches">
            <g transform="matrix(2.6067,0,0,2.6067,-49.8708,-487.729)">
                <path d="M156.065,286.027c-2.456,-3.099 -12.112,-14.651 -22.358,-18.28c-0.134,-0.05 -0.284,-0.021 -0.393,0.069c-0.11,0.091 -0.165,0.232 -0.144,0.373c0.028,0.187 0.691,4.6 1.248,5.853c0.045,0.102 0.131,0.181 0.237,0.218c0.094,0.032 9.468,3.409 17.103,14.525c1.935,2.818 3,6.111 3.078,9.523c0.085,3.692 -0.269,6.992 -1.054,9.811c-0.041,0.146 0.003,0.301 0.114,0.405c0.116,0.109 2.885,2.681 5.721,3.778c0.047,0.019 0.096,0.028 0.146,0.028c0.076,0 0.151,-0.021 0.216,-0.062c0.109,-0.069 0.179,-0.185 0.189,-0.312c0.003,-0.046 0.379,-4.605 2.41,-10.079c0.03,-0.081 0.033,-0.17 0.009,-0.254c-0.051,-0.178 -4.931,-17.893 9.547,-37.148c14.479,19.255 9.599,36.97 9.547,37.148c-0.024,0.084 -0.02,0.173 0.009,0.254c2.031,5.474 2.408,10.033 2.411,10.079c0.01,0.127 0.08,0.243 0.188,0.312c0.065,0.041 0.141,0.062 0.216,0.062c0.05,0 0.099,-0.009 0.146,-0.028c2.836,-1.097 5.605,-3.669 5.722,-3.778c0.11,-0.104 0.154,-0.259 0.113,-0.405c-0.785,-2.819 -1.139,-6.119 -1.054,-9.811c0.079,-3.412 1.143,-6.705 3.078,-9.523c7.636,-11.116 17.01,-14.493 17.103,-14.525c0.106,-0.037 0.192,-0.116 0.238,-0.218c0.556,-1.253 1.219,-5.666 1.248,-5.853c0.02,-0.141 -0.035,-0.282 -0.144,-0.373c-0.11,-0.09 -0.259,-0.119 -0.393,-0.069c-10.246,3.629 -19.903,15.181 -22.358,18.28c-2.811,-19.355 -15.681,-30.735 -15.813,-30.849c-0.004,-0.004 -0.01,-0.003 -0.014,-0.007c-0.023,-0.017 -0.038,-0.044 -0.065,-0.056c-0.027,-0.012 -0.057,-0.006 -0.085,-0.012c-0.032,-0.008 -0.06,-0.013 -0.093,-0.013c-0.032,0 -0.061,0.005 -0.092,0.013c-0.029,0.006 -0.058,0 -0.085,0.012c-0.028,0.012 -0.042,0.039 -0.065,0.056c-0.005,0.004 -0.011,0.003 -0.015,0.007c-0.131,0.114 -13.001,11.494 -15.812,30.849Z" style="fill:rgb(35,31,32);fill-rule:nonzero;"/>
            </g>
            <g transform="matrix(2.6067,0,0,2.6067,-49.8708,-487.729)">
                <path d="M133.332,253.918c0.099,0.073 0.225,0.098 0.343,0.065c5.167,-1.361 9.964,-2.051 14.256,-2.051c13.965,0 18.381,7.333 18.423,7.406c0.072,0.126 0.207,0.203 0.352,0.203l0.006,0c0.148,-0.003 0.283,-0.084 0.351,-0.215c0.687,-1.286 4.137,-4.853 4.171,-4.889c0.078,-0.08 0.119,-0.188 0.114,-0.299c-0.004,-0.111 -0.054,-0.216 -0.138,-0.288c-6.129,-5.381 -13.481,-8.109 -21.848,-8.109c-8.647,0 -15.308,3.033 -15.375,3.064c-0.089,0.041 -0.16,0.113 -0.2,0.203c-0.752,1.692 -0.626,4.485 -0.62,4.602c0.005,0.123 0.066,0.236 0.165,0.308Z" style="fill:rgb(35,31,32);fill-rule:nonzero;"/>
            </g>
            <g transform="matrix(2.6067,0,0,2.6067,-49.8708,-487.729)">
                <path d="M121.935,255.684c-0.126,-0.081 -0.287,-0.086 -0.418,-0.013c-0.248,0.139 -6.133,3.55 -11.177,16.071c-0.078,0.193 0.003,0.413 0.187,0.51c0.06,0.032 0.125,0.047 0.189,0.047c0.132,0 0.261,-0.065 0.338,-0.181c0.06,-0.091 6.048,-9.065 10.87,-11.958c0.133,-0.08 0.209,-0.228 0.196,-0.383c-0.002,-0.017 -0.153,-1.85 0,-3.718c0.012,-0.15 -0.059,-0.294 -0.185,-0.375Z" style="fill:rgb(35,31,32);fill-rule:nonzero;"/>
            </g>
            <g transform="matrix(2.6067,0,0,2.6067,-49.8708,-487.729)">
                <path d="M90.107,257.808c-1.148,1.507 -1.229,4.44 -1.232,4.564c-0.004,0.171 0.099,0.326 0.258,0.388c0.049,0.018 0.098,0.027 0.147,0.027c0.116,-0 0.227,-0.049 0.306,-0.14c3.543,-4.067 12.063,-7.427 12.149,-7.461c0.186,-0.073 0.291,-0.269 0.249,-0.464c-0.042,-0.194 -0.211,-0.329 -0.418,-0.319c-5.164,0.271 -11.067,3.164 -11.316,3.287c-0.056,0.028 -0.105,0.068 -0.143,0.118Z" style="fill:rgb(35,31,32);fill-rule:nonzero;"/>
            </g>
            <g transform="matrix(2.6067,0,0,2.6067,-49.8708,-487.729)">
                <path d="M53.923,283.295c-0.517,0.443 -0.901,0.865 -1.182,1.14c-0.277,0.279 -0.435,0.438 -0.435,0.438c-0,-0 0.199,-0.105 0.547,-0.29c0.35,-0.179 0.83,-0.46 1.445,-0.725c0.598,-0.291 1.319,-0.578 2.085,-0.866c0.776,-0.271 1.606,-0.522 2.438,-0.723c0.838,-0.184 1.67,-0.337 2.449,-0.408c0.567,-0.067 1.085,-0.079 1.567,-0.08c-1.585,3.811 -2.879,8.307 -3.594,13.561c-0.048,0.017 -0.09,0.032 -0.146,0.05c-0.44,0.161 -1.033,0.411 -1.701,0.75c-0.66,0.352 -1.411,0.772 -2.148,1.298c-0.749,0.508 -1.489,1.113 -2.196,1.734c-0.697,0.636 -1.347,1.303 -1.925,1.947c-0.565,0.659 -1.072,1.276 -1.468,1.836c-0.418,0.537 -0.71,1.027 -0.931,1.352c-0.216,0.329 -0.339,0.517 -0.339,0.517c-0,-0 0.174,-0.143 0.478,-0.393c0.308,-0.245 0.721,-0.618 1.271,-1c0.529,-0.404 1.177,-0.829 1.87,-1.265c0.706,-0.419 1.47,-0.831 2.245,-1.195c0.785,-0.347 1.57,-0.663 2.319,-0.888c0.742,-0.244 1.447,-0.386 2.036,-0.499c0.075,-0.012 0.131,-0.016 0.203,-0.027c-0.247,3.552 -0.241,7.401 0.109,11.587c0.014,0.167 0.129,0.308 0.29,0.355c0.038,0.012 0.076,0.017 0.115,0.017c0.123,0 0.242,-0.056 0.321,-0.157c0.043,-0.056 4.417,-5.668 8.691,-9.41c0.12,-0.104 0.167,-0.267 0.123,-0.419c-0.031,-0.106 -1.724,-6.159 -0.615,-14.007c0.356,-0.027 0.72,-0.046 1.094,-0.05c0.578,0.005 1.162,0.044 1.713,0.103c0.548,0.073 1.065,0.152 1.503,0.252c0.445,0.08 0.803,0.192 1.061,0.256c0.257,0.069 0.404,0.108 0.404,0.108c0,-0 -0.129,-0.081 -0.353,-0.222c-0.227,-0.138 -0.544,-0.357 -0.952,-0.569c-0.399,-0.233 -0.883,-0.469 -1.415,-0.715c-0.536,-0.233 -1.122,-0.46 -1.729,-0.655c-0.34,-0.102 -0.685,-0.195 -1.028,-0.278c1.062,-5.55 3.594,-11.798 9.054,-17.411c0.076,-0.078 0.118,-0.185 0.115,-0.295c-0.001,-0.021 -0.06,-2.145 0.458,-3.979c0.044,-0.158 -0.011,-0.327 -0.139,-0.428c-0.128,-0.102 -0.304,-0.117 -0.448,-0.038c-0.122,0.068 -7.09,4.077 -12.45,14.156c-0.019,0.002 -0.032,0.004 -0.052,0.006c-0.463,0.07 -1.094,0.196 -1.816,0.396c-0.718,0.213 -1.537,0.475 -2.364,0.842c-0.836,0.349 -1.682,0.794 -2.498,1.261c-0.81,0.485 -1.581,1.009 -2.275,1.524c-0.685,0.533 -1.305,1.037 -1.805,1.506Z" style="fill:rgb(35,31,32);fill-rule:nonzero;"/>
            </g>
            <g transform="matrix(2.6067,0,0,2.6067,-49.8708,-487.729)">
                <path d="M139.354,235.708c0.018,-0.025 0.498,-0.658 1.43,-1.592c0.21,0.084 0.431,0.146 0.668,0.162c0.182,0.012 0.36,0.001 0.53,-0.03l0.058,-0.011c-0.006,0.001 0.078,-0.014 0.109,-0.029c0.028,-0.019 0.165,-0.04 0.311,-0.07c0.315,-0.051 0.794,-0.106 1.394,-0.128c0.6,-0.008 1.319,-0.01 2.095,0.082c0.78,0.071 1.612,0.224 2.449,0.408c0.833,0.201 1.663,0.452 2.438,0.723c0.767,0.288 1.487,0.575 2.085,0.866c0.616,0.265 1.095,0.547 1.446,0.725c0.348,0.185 0.547,0.29 0.547,0.29c0,0 -0.159,-0.159 -0.435,-0.438c-0.282,-0.275 -0.666,-0.697 -1.183,-1.14c-0.499,-0.469 -1.119,-0.973 -1.804,-1.506c-0.695,-0.515 -1.466,-1.04 -2.275,-1.524c-0.817,-0.467 -1.662,-0.912 -2.498,-1.261c-0.564,-0.25 -1.11,-0.441 -1.636,-0.61c3.988,-2.661 10.087,-5.37 18.443,-5.37c2.733,0 5.591,0.293 8.495,0.867c0.006,0.002 0.013,0.002 0.019,0.003c0.008,0.001 0.016,0.003 0.024,0.004c0.023,0.005 0.047,-0.002 0.07,-0.002c0.024,0 0.047,0.007 0.07,0.002c0.008,-0.001 0.016,-0.003 0.025,-0.004c0.006,-0.001 0.012,-0.001 0.019,-0.003c2.903,-0.574 5.761,-0.867 8.494,-0.867c8.357,0 14.456,2.709 18.444,5.37c-0.526,0.169 -1.073,0.36 -1.637,0.61c-0.835,0.349 -1.68,0.794 -2.497,1.261c-0.81,0.484 -1.58,1.009 -2.276,1.524c-0.684,0.533 -1.304,1.037 -1.804,1.506c-0.516,0.443 -0.901,0.865 -1.182,1.14c-0.277,0.279 -0.435,0.438 -0.435,0.438c-0,0 0.199,-0.105 0.547,-0.29c0.35,-0.178 0.83,-0.46 1.445,-0.725c0.598,-0.291 1.319,-0.578 2.085,-0.866c0.776,-0.271 1.606,-0.522 2.438,-0.723c0.838,-0.184 1.67,-0.337 2.449,-0.408c0.776,-0.092 1.495,-0.09 2.095,-0.082c0.6,0.022 1.079,0.077 1.394,0.128c0.146,0.03 0.284,0.051 0.312,0.07c0.031,0.015 0.114,0.03 0.109,0.029l0.057,0.011c0.171,0.031 0.349,0.042 0.53,0.03c0.238,-0.016 0.459,-0.078 0.668,-0.162c0.933,0.934 1.412,1.567 1.431,1.592c5.164,5.835 7.044,13.658 7.345,21.29c-0.033,0.001 -0.063,0.001 -0.096,0.002c-0.747,0.046 -1.604,0.116 -2.494,0.287c-0.892,0.151 -1.816,0.394 -2.717,0.664c-0.899,0.289 -1.768,0.626 -2.561,0.971c-0.788,0.365 -1.505,0.715 -2.098,1.059c-0.604,0.315 -1.073,0.639 -1.409,0.843c-0.333,0.21 -0.523,0.329 -0.523,0.329c-0,0 0.218,-0.057 0.598,-0.159c0.382,-0.095 0.913,-0.261 1.572,-0.38c0.648,-0.148 1.415,-0.265 2.226,-0.373c0.817,-0.088 1.683,-0.145 2.539,-0.154c0.858,0.011 1.703,0.05 2.478,0.157c0.777,0.086 1.477,0.25 2.059,0.393c0.17,0.046 0.306,0.091 0.454,0.137c-0.29,12.041 -3.938,22.658 -4.003,22.841c-0.382,1.453 -0.819,2.84 -1.295,4.172c-0.165,-0 -0.329,-0.001 -0.515,0.006c-0.505,0.031 -1.083,0.079 -1.683,0.194c-0.603,0.102 -1.227,0.266 -1.835,0.449c-0.606,0.194 -1.192,0.421 -1.728,0.655c-0.532,0.246 -1.016,0.482 -1.416,0.714c-0.407,0.213 -0.724,0.432 -0.951,0.57c-0.225,0.141 -0.353,0.222 -0.353,0.222c0,-0 0.147,-0.039 0.404,-0.108c0.257,-0.064 0.616,-0.176 1.061,-0.256c0.438,-0.1 0.955,-0.179 1.503,-0.252c0.551,-0.06 1.135,-0.098 1.713,-0.104c0.579,0.007 1.149,0.034 1.672,0.106c0.443,0.049 0.838,0.136 1.19,0.22c-6.812,16.291 -19.994,22.786 -22.626,23.943c-2.564,-15.649 -6.993,-23.97 -7.038,-24.053c-0.072,-0.132 -0.208,-0.213 -0.357,-0.213l-0.004,0c-0.151,0.002 -0.288,0.086 -0.357,0.22l-3.536,6.856l-3.535,-6.856c-0.069,-0.134 -0.207,-0.218 -0.357,-0.22l-0.004,0c-0.149,0 -0.286,0.081 -0.357,0.213c-0.045,0.083 -4.474,8.404 -7.038,24.053c-2.632,-1.157 -15.815,-7.652 -22.626,-23.943c0.352,-0.084 0.746,-0.171 1.189,-0.22c0.523,-0.072 1.094,-0.099 1.673,-0.106c0.578,0.006 1.162,0.044 1.713,0.104c0.548,0.073 1.065,0.152 1.503,0.252c0.445,0.08 0.803,0.192 1.06,0.256c0.258,0.069 0.404,0.108 0.404,0.108c0,-0 -0.128,-0.081 -0.352,-0.222c-0.227,-0.138 -0.544,-0.357 -0.951,-0.57c-0.4,-0.232 -0.885,-0.468 -1.416,-0.714c-0.536,-0.234 -1.123,-0.461 -1.728,-0.655c-0.609,-0.183 -1.232,-0.347 -1.835,-0.449c-0.601,-0.115 -1.179,-0.163 -1.683,-0.194c-0.187,-0.007 -0.351,-0.006 -0.516,-0.006c-0.475,-1.332 -0.912,-2.719 -1.295,-4.172c-0.064,-0.183 -3.712,-10.8 -4.002,-22.841c0.148,-0.046 0.283,-0.091 0.454,-0.137c0.582,-0.143 1.282,-0.307 2.059,-0.393c0.775,-0.107 1.62,-0.146 2.478,-0.157c0.856,0.009 1.721,0.066 2.538,0.154c0.812,0.108 1.578,0.225 2.227,0.373c0.659,0.119 1.19,0.285 1.572,0.38c0.38,0.102 0.598,0.159 0.598,0.159c-0,0 -0.191,-0.119 -0.523,-0.329c-0.337,-0.204 -0.806,-0.528 -1.409,-0.843c-0.593,-0.344 -1.31,-0.694 -2.098,-1.059c-0.794,-0.345 -1.663,-0.682 -2.561,-0.971c-0.901,-0.27 -1.825,-0.513 -2.717,-0.664c-0.891,-0.171 -1.747,-0.241 -2.494,-0.287c-0.034,-0.001 -0.063,-0.001 -0.097,-0.002c0.301,-7.632 2.182,-15.455 7.346,-21.29Zm32.78,84.367c-1.008,-1.509 -3.968,-7.439 0,-20.799c3.969,13.36 1.008,19.29 0,20.799Zm-82.022,-89.461c-0.866,0.065 -1.661,0.141 -2.337,0.255c-0.675,0.082 -1.229,0.221 -1.615,0.294c-0.385,0.079 -0.605,0.124 -0.605,0.124c0,-0 0.224,0.023 0.616,0.062c0.391,0.045 0.946,0.075 1.605,0.196c0.659,0.089 1.418,0.249 2.216,0.433c0.796,0.204 1.626,0.455 2.43,0.748c0.8,0.312 1.577,0.645 2.265,1.017c0.278,0.141 0.527,0.291 0.773,0.44c-2.476,2.316 -4.755,4.821 -6.798,7.507c-2.005,2.634 -3.942,5.586 -5.596,8.809c-0.372,0.012 -0.798,0.04 -1.273,0.092c-0.742,0.097 -1.592,0.224 -2.468,0.456c-0.88,0.212 -1.785,0.517 -2.666,0.849c-0.876,0.349 -1.72,0.744 -2.488,1.143c-0.761,0.418 -1.453,0.816 -2.021,1.2c-0.58,0.355 -1.026,0.711 -1.348,0.937c-0.318,0.232 -0.499,0.365 -0.499,0.365c0,0 0.213,-0.073 0.586,-0.2c0.374,-0.121 0.893,-0.323 1.542,-0.487c0.637,-0.192 1.394,-0.361 2.196,-0.524c0.809,-0.144 1.668,-0.26 2.522,-0.327c0.857,-0.048 1.702,-0.067 2.483,-0.013c0.64,0.027 1.214,0.111 1.732,0.197c-4.572,11.052 -5.336,24.766 5.088,39.613c-3.639,0.814 -22.138,5.916 -30.3,26.504c-0.217,-0.008 -0.438,0.005 -0.659,0.066c0,-0 -0.071,0.019 -0.203,0.055c-0.176,0.043 -0.335,0.102 -0.567,0.18c-0.44,0.161 -1.033,0.411 -1.701,0.75c-0.66,0.352 -1.411,0.772 -2.148,1.298c-0.749,0.508 -1.489,1.113 -2.196,1.734c-0.697,0.635 -1.347,1.303 -1.926,1.947c-0.564,0.659 -1.071,1.276 -1.467,1.835c-0.418,0.538 -0.71,1.028 -0.931,1.353c-0.216,0.329 -0.339,0.517 -0.339,0.517c-0,0 0.174,-0.143 0.478,-0.393c0.308,-0.246 0.721,-0.618 1.271,-1c0.529,-0.404 1.177,-0.829 1.87,-1.265c0.706,-0.42 1.47,-0.832 2.245,-1.195c0.785,-0.347 1.569,-0.663 2.319,-0.888c0.742,-0.244 1.447,-0.386 2.036,-0.499c0.147,-0.024 0.265,-0.036 0.397,-0.053c-0.416,1.43 -0.794,2.915 -1.109,4.477c-0.025,0.099 -1.14,4.583 -1.109,11c-0.021,0.013 -0.044,0.022 -0.065,0.036c-0,-0 -0.06,0.042 -0.172,0.121c-0.151,0.1 -0.281,0.209 -0.473,0.362c-0.359,0.3 -0.833,0.736 -1.346,1.281c-0.502,0.555 -1.066,1.204 -1.582,1.949c-0.533,0.732 -1.024,1.551 -1.479,2.375c-0.44,0.834 -0.826,1.682 -1.152,2.484c-0.308,0.812 -0.576,1.564 -0.759,2.224c-0.212,0.647 -0.321,1.207 -0.418,1.588c-0.092,0.382 -0.144,0.601 -0.144,0.601c0,0 0.115,-0.193 0.317,-0.532c0.206,-0.335 0.469,-0.825 0.857,-1.371c0.36,-0.559 0.827,-1.178 1.332,-1.823c0.522,-0.635 1.1,-1.28 1.707,-1.885c0.621,-0.592 1.252,-1.155 1.881,-1.621c0.606,-0.474 1.211,-0.841 1.723,-1.144c0.673,7.226 3.022,15.852 9.349,23.397c0.079,0.094 0.195,0.144 0.311,0.144l0.011,-0c0.221,0.023 0.415,-0.178 0.415,-0.406c0,-0.095 -0.033,-0.183 -0.088,-0.252c-0.507,-1.348 -5.567,-15.33 -4.022,-30.066c0.5,0.479 1.026,0.948 1.572,1.393c0.743,0.58 1.51,1.111 2.241,1.574c0.744,0.447 1.437,0.844 2.054,1.141c0.599,0.323 1.131,0.529 1.489,0.693c0.36,0.158 0.566,0.248 0.566,0.248c0,0 -0.17,-0.148 -0.468,-0.406c-0.293,-0.262 -0.729,-0.608 -1.197,-1.087c-0.487,-0.453 -1.014,-1.022 -1.559,-1.634c-0.531,-0.626 -1.064,-1.31 -1.552,-2.014c-0.472,-0.716 -0.915,-1.437 -1.261,-2.138c-0.365,-0.692 -0.622,-1.363 -0.831,-1.925c-0.111,-0.323 -0.192,-0.601 -0.259,-0.848c1.024,-4.749 2.861,-9.434 5.889,-13.665c0.176,0.197 0.345,0.394 0.539,0.589c0.626,0.654 1.346,1.283 2.076,1.876c0.743,0.581 1.509,1.112 2.24,1.575c0.744,0.447 1.437,0.844 2.054,1.141c0.6,0.323 1.131,0.529 1.489,0.693c0.36,0.158 0.566,0.248 0.566,0.248c-0,-0 -0.17,-0.148 -0.468,-0.406c-0.293,-0.262 -0.728,-0.608 -1.196,-1.087c-0.487,-0.454 -1.014,-1.022 -1.559,-1.633c-0.532,-0.627 -1.065,-1.311 -1.552,-2.015c-0.473,-0.716 -0.915,-1.437 -1.262,-2.139c-0.327,-0.62 -0.56,-1.213 -0.757,-1.736c2.211,-2.62 6.24,-6.631 12.104,-9.619c0.016,0.021 0.027,0.039 0.042,0.061c0.457,0.593 0.996,1.263 1.638,1.902c0.626,0.655 1.345,1.283 2.075,1.877c0.743,0.581 1.509,1.112 2.241,1.574c0.744,0.448 1.437,0.845 2.054,1.142c0.599,0.323 1.131,0.529 1.488,0.693c0.361,0.158 0.566,0.247 0.566,0.247c0,0 -0.17,-0.147 -0.467,-0.405c-0.293,-0.263 -0.729,-0.609 -1.197,-1.087c-0.487,-0.454 -1.013,-1.023 -1.558,-1.634c-0.532,-0.626 -1.065,-1.31 -1.553,-2.015c-0.473,-0.715 -0.915,-1.436 -1.261,-2.138c-0.322,-0.61 -0.552,-1.192 -0.747,-1.709c3.814,-1.486 8.255,-2.473 13.334,-2.473c0.947,0 1.915,0.035 2.878,0.103c0.885,0.062 1.753,0.119 2.639,0.128c0.713,0.007 1.677,0.032 2.829,0.092c0.009,0.034 0.021,0.077 0.036,0.137c0.042,0.176 0.1,0.335 0.177,0.568c0.157,0.441 0.402,1.037 0.737,1.707c0.347,0.663 0.761,1.416 1.282,2.158c0.502,0.753 1.102,1.497 1.717,2.209c0.631,0.701 1.293,1.356 1.933,1.939c0.655,0.57 1.268,1.081 1.824,1.482c0.534,0.421 1.022,0.717 1.346,0.94c0.328,0.218 0.514,0.343 0.514,0.343c-0,-0 -0.141,-0.175 -0.39,-0.481c-0.242,-0.309 -0.611,-0.726 -0.989,-1.279c-0.401,-0.531 -0.821,-1.183 -1.251,-1.879c-0.415,-0.709 -0.821,-1.476 -1.178,-2.254c-0.342,-0.787 -0.652,-1.574 -0.872,-2.325c-0.238,-0.744 -0.375,-1.45 -0.483,-2.04c-0.054,-0.342 -0.086,-0.633 -0.108,-0.892c4.342,0.447 9.935,1.345 15.876,3.152c17.549,5.336 30.649,19.896 34.187,37.998c0.131,0.671 0.246,1.322 0.338,1.945c0.024,0.155 0.135,0.283 0.285,0.328c0.15,0.048 0.314,0.002 0.418,-0.116c0.074,-0.082 7.361,-8.1 12.16,-10.318c4.8,2.218 12.087,10.236 12.16,10.318c0.105,0.118 0.269,0.164 0.419,0.116c0.15,-0.045 0.261,-0.173 0.284,-0.328c0.093,-0.623 0.208,-1.274 0.339,-1.945c3.538,-18.102 16.638,-32.662 34.186,-37.998c5.941,-1.807 11.535,-2.705 15.877,-3.152c-0.023,0.259 -0.054,0.55 -0.108,0.892c-0.108,0.59 -0.245,1.296 -0.484,2.04c-0.219,0.751 -0.529,1.538 -0.871,2.325c-0.357,0.778 -0.763,1.545 -1.178,2.254c-0.431,0.696 -0.851,1.348 -1.251,1.879c-0.378,0.553 -0.747,0.97 -0.99,1.279c-0.248,0.306 -0.39,0.481 -0.39,0.481c-0,-0 0.187,-0.125 0.515,-0.343c0.323,-0.223 0.811,-0.519 1.345,-0.94c0.556,-0.401 1.17,-0.912 1.825,-1.482c0.639,-0.583 1.302,-1.238 1.933,-1.939c0.615,-0.712 1.214,-1.456 1.717,-2.209c0.52,-0.742 0.935,-1.495 1.282,-2.158c0.335,-0.67 0.58,-1.266 0.737,-1.707c0.077,-0.233 0.134,-0.392 0.176,-0.568c0.016,-0.06 0.028,-0.103 0.036,-0.137c1.153,-0.06 2.116,-0.085 2.83,-0.092c0.886,-0.009 1.753,-0.066 2.638,-0.128c0.963,-0.068 1.931,-0.103 2.878,-0.103c5.079,0 9.521,0.987 13.333,2.473c-0.194,0.517 -0.424,1.099 -0.746,1.709c-0.346,0.702 -0.788,1.423 -1.262,2.138c-0.487,0.705 -1.02,1.389 -1.552,2.015c-0.544,0.611 -1.071,1.18 -1.558,1.634c-0.468,0.478 -0.904,0.824 -1.197,1.087c-0.297,0.258 -0.467,0.405 -0.467,0.405c-0,0 0.205,-0.089 0.565,-0.247c0.358,-0.164 0.89,-0.37 1.489,-0.693c0.618,-0.297 1.31,-0.694 2.054,-1.142c0.732,-0.462 1.498,-0.993 2.241,-1.574c0.73,-0.594 1.449,-1.222 2.075,-1.877c0.642,-0.639 1.181,-1.309 1.638,-1.902c0.015,-0.022 0.026,-0.04 0.042,-0.061c5.865,2.988 9.893,6.999 12.104,9.619c-0.196,0.523 -0.43,1.116 -0.757,1.736c-0.347,0.702 -0.789,1.423 -1.262,2.139c-0.487,0.704 -1.02,1.388 -1.552,2.015c-0.545,0.611 -1.072,1.179 -1.559,1.633c-0.468,0.479 -0.903,0.825 -1.196,1.087c-0.298,0.258 -0.468,0.406 -0.468,0.406c-0,-0 0.206,-0.09 0.566,-0.248c0.358,-0.164 0.889,-0.37 1.489,-0.693c0.617,-0.297 1.31,-0.694 2.054,-1.141c0.731,-0.463 1.498,-0.994 2.241,-1.575c0.729,-0.593 1.449,-1.222 2.075,-1.876c0.195,-0.195 0.363,-0.392 0.539,-0.589c3.028,4.231 4.865,8.916 5.889,13.665c-0.066,0.247 -0.148,0.525 -0.259,0.848c-0.209,0.562 -0.466,1.233 -0.831,1.925c-0.346,0.701 -0.788,1.422 -1.261,2.138c-0.488,0.704 -1.021,1.388 -1.552,2.014c-0.545,0.612 -1.072,1.181 -1.559,1.634c-0.468,0.479 -0.904,0.825 -1.197,1.087c-0.298,0.258 -0.468,0.406 -0.468,0.406c0,0 0.207,-0.09 0.566,-0.248c0.358,-0.164 0.89,-0.37 1.489,-0.693c0.617,-0.297 1.31,-0.694 2.054,-1.141c0.731,-0.463 1.498,-0.994 2.241,-1.574c0.546,-0.445 1.072,-0.914 1.572,-1.393c1.545,14.736 -3.515,28.718 -4.022,30.066c-0.055,0.069 -0.088,0.157 -0.088,0.252c-0,0.228 0.194,0.429 0.416,0.406l0.01,-0c0.116,-0 0.232,-0.05 0.311,-0.144c6.327,-7.545 8.677,-16.171 9.349,-23.397c0.512,0.303 1.117,0.67 1.723,1.144c0.629,0.466 1.26,1.029 1.881,1.621c0.607,0.605 1.185,1.25 1.707,1.885c0.505,0.645 0.972,1.264 1.332,1.823c0.388,0.546 0.651,1.036 0.858,1.371c0.201,0.339 0.316,0.532 0.316,0.532c0,0 -0.052,-0.219 -0.144,-0.601c-0.097,-0.381 -0.206,-0.941 -0.418,-1.588c-0.183,-0.66 -0.45,-1.412 -0.759,-2.224c-0.326,-0.802 -0.712,-1.65 -1.152,-2.484c-0.455,-0.824 -0.946,-1.643 -1.479,-2.375c-0.516,-0.745 -1.08,-1.394 -1.582,-1.949c-0.513,-0.545 -0.987,-0.981 -1.346,-1.281c-0.192,-0.153 -0.322,-0.262 -0.473,-0.362c-0.112,-0.079 -0.172,-0.121 -0.172,-0.121c-0.021,-0.014 -0.044,-0.023 -0.065,-0.036c0.031,-6.417 -1.084,-10.901 -1.109,-11c-0.316,-1.562 -0.693,-3.047 -1.109,-4.477c0.133,0.017 0.25,0.029 0.397,0.053c0.589,0.113 1.294,0.255 2.036,0.499c0.75,0.225 1.534,0.541 2.319,0.888c0.776,0.363 1.539,0.775 2.245,1.195c0.693,0.436 1.342,0.861 1.87,1.265c0.55,0.382 0.963,0.754 1.271,1c0.305,0.25 0.478,0.393 0.478,0.393c-0,0 -0.123,-0.188 -0.338,-0.517c-0.222,-0.325 -0.514,-0.815 -0.932,-1.353c-0.396,-0.559 -0.902,-1.176 -1.467,-1.835c-0.578,-0.644 -1.229,-1.312 -1.926,-1.947c-0.707,-0.621 -1.446,-1.226 -2.195,-1.734c-0.738,-0.526 -1.489,-0.946 -2.149,-1.298c-0.667,-0.339 -1.261,-0.589 -1.701,-0.75c-0.232,-0.078 -0.391,-0.137 -0.566,-0.18c-0.133,-0.036 -0.204,-0.055 -0.204,-0.055c-0.221,-0.061 -0.442,-0.074 -0.659,-0.066c-8.162,-20.588 -26.66,-25.69 -30.3,-26.504c10.424,-14.847 9.66,-28.561 5.088,-39.613c0.518,-0.086 1.092,-0.17 1.732,-0.197c0.781,-0.054 1.626,-0.035 2.483,0.013c0.854,0.067 1.713,0.183 2.522,0.327c0.802,0.163 1.559,0.332 2.196,0.524c0.649,0.164 1.168,0.366 1.542,0.487c0.373,0.127 0.586,0.2 0.586,0.2c-0,0 -0.181,-0.133 -0.499,-0.365c-0.321,-0.226 -0.768,-0.582 -1.348,-0.937c-0.568,-0.384 -1.26,-0.782 -2.021,-1.2c-0.768,-0.399 -1.612,-0.794 -2.488,-1.143c-0.88,-0.332 -1.786,-0.637 -2.666,-0.849c-0.876,-0.232 -1.726,-0.359 -2.468,-0.456c-0.475,-0.052 -0.901,-0.08 -1.275,-0.092c-1.652,-3.223 -3.589,-6.175 -5.594,-8.809c-2.043,-2.686 -4.322,-5.191 -6.798,-7.507c0.246,-0.149 0.495,-0.299 0.773,-0.44c0.688,-0.372 1.465,-0.705 2.265,-1.017c0.804,-0.293 1.634,-0.544 2.43,-0.748c0.798,-0.184 1.557,-0.344 2.216,-0.433c0.659,-0.121 1.215,-0.151 1.604,-0.196c0.393,-0.039 0.617,-0.062 0.617,-0.062c0,-0 -0.22,-0.045 -0.605,-0.124c-0.387,-0.073 -0.94,-0.212 -1.615,-0.294c-0.676,-0.114 -1.471,-0.19 -2.337,-0.255c-0.864,-0.044 -1.796,-0.054 -2.738,-0.009c-0.939,0.063 -1.889,0.161 -2.778,0.333c-0.893,0.152 -1.72,0.388 -2.435,0.608c-0.101,0.033 -0.193,0.066 -0.288,0.099c-5.29,-4.363 -11.357,-7.913 -17.997,-10.476c-0.437,-0.169 -0.877,-0.315 -1.315,-0.475c0.322,-0.338 0.673,-0.69 1.092,-1.042c0.586,-0.519 1.268,-1.019 1.977,-1.503c0.717,-0.467 1.469,-0.899 2.198,-1.278c0.736,-0.36 1.439,-0.687 2.061,-0.923c0.614,-0.266 1.149,-0.422 1.519,-0.554c0.373,-0.127 0.586,-0.199 0.586,-0.199c-0,0 -0.225,0.006 -0.618,0.015c-0.393,0.017 -0.963,0.007 -1.64,0.079c-0.684,0.042 -1.475,0.148 -2.333,0.28c-0.852,0.152 -1.762,0.354 -2.67,0.611c-0.9,0.274 -1.803,0.584 -2.63,0.952c-0.836,0.35 -1.588,0.767 -2.235,1.142c-0.628,0.381 -1.141,0.745 -1.507,1.032c-5.531,-1.618 -11.106,-2.469 -16.647,-2.561c0.229,-0.519 0.502,-1.113 0.872,-1.727c0.386,-0.681 0.869,-1.376 1.381,-2.063c0.527,-0.676 1.098,-1.328 1.665,-1.923c0.579,-0.579 1.137,-1.117 1.649,-1.542c0.495,-0.451 0.95,-0.772 1.257,-1.017c0.312,-0.241 0.49,-0.379 0.49,-0.379c0,-0 -0.211,0.078 -0.579,0.216c-0.367,0.143 -0.909,0.318 -1.526,0.607c-0.633,0.261 -1.347,0.618 -2.116,1.022c-0.756,0.42 -1.552,0.906 -2.327,1.444c-0.762,0.551 -1.516,1.138 -2.179,1.755c-0.677,0.602 -1.253,1.24 -1.743,1.806c-0.479,0.576 -0.855,1.098 -1.109,1.491c-0.097,0.158 -0.171,0.278 -0.237,0.397c-8.486,0.52 -13.754,2.754 -13.813,2.779c-0.172,0.076 -0.271,0.259 -0.238,0.445c0.034,0.185 0.191,0.323 0.378,0.333c3.154,0.164 6.325,1.164 6.356,1.174c0.054,0.018 0.114,0.023 0.17,0.017c2.637,-0.304 5.255,-0.457 7.784,-0.457c40.458,-0 53.863,39.231 53.995,39.627c1.062,5.721 1.098,10.819 0.129,15.264c-0.068,-0.053 -0.127,-0.106 -0.197,-0.158c-0.485,-0.372 -1.029,-0.717 -1.577,-1.039c-0.555,-0.311 -1.12,-0.587 -1.656,-0.82c-0.542,-0.222 -1.045,-0.416 -1.487,-0.551c-0.433,-0.154 -0.809,-0.237 -1.064,-0.309c-0.257,-0.069 -0.403,-0.108 -0.403,-0.108c-0,-0 0.128,0.081 0.353,0.223c0.222,0.145 0.549,0.331 0.91,0.602c0.372,0.253 0.781,0.579 1.208,0.93c0.418,0.363 0.844,0.765 1.241,1.185c0.389,0.429 0.758,0.864 1.061,1.297c0.314,0.424 0.555,0.845 0.752,1.199c0.047,0.09 0.079,0.163 0.119,0.244c-0.912,2.73 -2.249,5.178 -4.029,7.321c-4.984,5.998 -12.721,8.83 -19.871,10.119c-0.079,-0.237 -0.163,-0.477 -0.265,-0.721c-0.223,-0.569 -0.511,-1.146 -0.814,-1.704c-0.315,-0.554 -0.657,-1.081 -0.995,-1.557c-0.35,-0.471 -0.681,-0.896 -0.99,-1.24c-0.291,-0.355 -0.57,-0.62 -0.751,-0.815c-0.185,-0.191 -0.29,-0.299 -0.29,-0.299c0,-0 0.068,0.135 0.187,0.373c0.116,0.239 0.299,0.566 0.469,0.985c0.188,0.409 0.37,0.899 0.554,1.42c0.171,0.528 0.329,1.091 0.452,1.656c0.112,0.568 0.203,1.131 0.239,1.658c0.02,0.207 0.025,0.402 0.029,0.594c-3.574,0.505 -6.907,0.652 -9.551,0.652c-3.355,0 -5.942,-0.226 -7.068,-0.344c7.181,-12.242 8.855,-26.35 8.985,-36.094c0.077,-5.758 -0.87,-11.325 -2.733,-16.352c0.271,-0.283 0.572,-0.585 0.937,-0.885c0.456,-0.396 0.986,-0.778 1.537,-1.146c0.558,-0.356 1.142,-0.684 1.708,-0.971c0.57,-0.273 1.116,-0.521 1.598,-0.698c0.476,-0.201 0.89,-0.317 1.177,-0.417c0.289,-0.095 0.454,-0.149 0.454,-0.149c0,-0 -0.173,0.003 -0.477,0.008c-0.304,0.009 -0.744,-0.003 -1.267,0.048c-0.529,0.028 -1.141,0.103 -1.804,0.2c-0.659,0.11 -1.364,0.259 -2.067,0.451c-0.697,0.205 -1.397,0.438 -2.038,0.717c-0.273,0.111 -0.528,0.234 -0.777,0.357c-0.23,-0.512 -0.456,-1.028 -0.706,-1.526c-8.152,-16.182 -22.761,-19.579 -33.581,-19.579c-0.294,-0 -0.581,0.005 -0.869,0.01c-0.048,-0.458 -0.099,-1.006 -0.084,-1.605c0,-0.605 0.058,-1.255 0.14,-1.913c0.096,-0.654 0.23,-1.31 0.384,-1.926c0.168,-0.61 0.337,-1.184 0.518,-1.665c0.16,-0.492 0.343,-0.881 0.456,-1.163c0.117,-0.28 0.184,-0.441 0.184,-0.441c-0,-0 -0.111,0.133 -0.306,0.366c-0.192,0.235 -0.489,0.561 -0.793,0.989c-0.326,0.418 -0.669,0.93 -1.031,1.495c-0.347,0.571 -0.695,1.201 -1.01,1.858c-0.302,0.661 -0.584,1.343 -0.793,2.01c-0.225,0.663 -0.368,1.311 -0.481,1.878c-0.016,0.088 -0.023,0.16 -0.037,0.245c-4.157,0.301 -7.091,1.007 -7.673,1.155c-0.582,-0.148 -3.515,-0.854 -7.673,-1.155c-0.013,-0.085 -0.02,-0.157 -0.036,-0.245c-0.113,-0.567 -0.257,-1.215 -0.481,-1.878c-0.209,-0.667 -0.492,-1.349 -0.793,-2.01c-0.315,-0.657 -0.664,-1.287 -1.011,-1.858c-0.362,-0.565 -0.705,-1.077 -1.03,-1.495c-0.304,-0.428 -0.602,-0.754 -0.793,-0.989c-0.195,-0.233 -0.307,-0.366 -0.307,-0.366c-0,-0 0.067,0.161 0.185,0.441c0.112,0.282 0.295,0.671 0.455,1.163c0.182,0.481 0.351,1.055 0.519,1.665c0.153,0.616 0.288,1.272 0.383,1.926c0.082,0.658 0.141,1.308 0.14,1.913c0.016,0.599 -0.035,1.147 -0.084,1.605c-0.287,-0.005 -0.574,-0.01 -0.869,-0.01c-10.82,-0 -25.428,3.397 -33.58,19.579c-0.251,0.498 -0.476,1.014 -0.707,1.526c-0.248,-0.123 -0.503,-0.246 -0.776,-0.357c-0.641,-0.279 -1.342,-0.512 -2.039,-0.717c-0.703,-0.192 -1.407,-0.341 -2.066,-0.451c-0.664,-0.097 -1.276,-0.172 -1.804,-0.2c-0.523,-0.051 -0.964,-0.039 -1.267,-0.048c-0.304,-0.005 -0.478,-0.008 -0.478,-0.008c0,-0 0.166,0.054 0.455,0.149c0.287,0.1 0.7,0.216 1.177,0.417c0.482,0.177 1.027,0.425 1.598,0.698c0.566,0.287 1.15,0.615 1.707,0.971c0.551,0.368 1.082,0.75 1.538,1.146c0.364,0.3 0.665,0.602 0.936,0.885c-1.862,5.027 -2.809,10.594 -2.732,16.352c0.13,9.744 1.803,23.852 8.984,36.094c-1.125,0.118 -3.712,0.344 -7.068,0.344c-2.643,0 -5.977,-0.147 -9.551,-0.652c0.005,-0.192 0.009,-0.387 0.029,-0.594c0.037,-0.527 0.128,-1.09 0.239,-1.658c0.124,-0.565 0.281,-1.128 0.453,-1.656c0.183,-0.521 0.366,-1.011 0.554,-1.42c0.169,-0.419 0.352,-0.746 0.468,-0.985c0.12,-0.238 0.188,-0.373 0.188,-0.373c0,-0 -0.105,0.108 -0.29,0.299c-0.181,0.195 -0.46,0.46 -0.752,0.815c-0.309,0.344 -0.64,0.769 -0.989,1.24c-0.338,0.476 -0.68,1.003 -0.995,1.557c-0.304,0.558 -0.592,1.135 -0.814,1.704c-0.103,0.244 -0.186,0.484 -0.265,0.721c-7.151,-1.289 -14.888,-4.121 -19.871,-10.119c-1.781,-2.143 -3.118,-4.591 -4.03,-7.321c0.04,-0.081 0.072,-0.154 0.119,-0.244c0.197,-0.354 0.438,-0.775 0.752,-1.199c0.303,-0.433 0.672,-0.868 1.061,-1.297c0.397,-0.42 0.823,-0.822 1.242,-1.185c0.426,-0.351 0.836,-0.677 1.207,-0.93c0.361,-0.271 0.688,-0.457 0.91,-0.602c0.225,-0.142 0.353,-0.223 0.353,-0.223c0,-0 -0.146,0.039 -0.403,0.108c-0.255,0.072 -0.631,0.155 -1.064,0.309c-0.442,0.135 -0.945,0.329 -1.487,0.551c-0.535,0.233 -1.101,0.509 -1.656,0.82c-0.548,0.322 -1.092,0.667 -1.577,1.039c-0.07,0.052 -0.129,0.106 -0.196,0.158c-0.97,-4.445 -0.935,-9.543 0.128,-15.264c0.132,-0.396 13.537,-39.627 53.995,-39.627c2.529,-0 5.148,0.153 7.785,0.457c0.056,0.006 0.115,0.001 0.169,-0.017c0.032,-0.01 3.203,-1.01 6.356,-1.174c0.188,-0.01 0.345,-0.148 0.378,-0.333c0.034,-0.186 -0.065,-0.369 -0.238,-0.445c-0.059,-0.025 -5.326,-2.259 -13.812,-2.779c-0.067,-0.119 -0.14,-0.239 -0.237,-0.397c-0.255,-0.393 -0.63,-0.915 -1.109,-1.491c-0.491,-0.566 -1.067,-1.204 -1.744,-1.806c-0.662,-0.617 -1.416,-1.204 -2.179,-1.755c-0.775,-0.538 -1.57,-1.024 -2.327,-1.444c-0.768,-0.404 -1.482,-0.761 -2.115,-1.022c-0.617,-0.289 -1.16,-0.464 -1.527,-0.607c-0.368,-0.138 -0.578,-0.216 -0.578,-0.216c0,-0 0.178,0.138 0.49,0.379c0.307,0.245 0.762,0.566 1.256,1.017c0.512,0.425 1.071,0.963 1.65,1.542c0.566,0.595 1.137,1.247 1.664,1.923c0.513,0.687 0.996,1.382 1.382,2.063c0.37,0.614 0.642,1.208 0.872,1.727c-5.542,0.092 -11.116,0.943 -16.647,2.561c-0.367,-0.287 -0.88,-0.651 -1.507,-1.032c-0.647,-0.375 -1.399,-0.792 -2.235,-1.142c-0.827,-0.368 -1.731,-0.678 -2.631,-0.952c-0.908,-0.257 -1.818,-0.459 -2.669,-0.611c-0.858,-0.132 -1.65,-0.238 -2.334,-0.28c-0.676,-0.072 -1.247,-0.062 -1.64,-0.079c-0.393,-0.009 -0.618,-0.015 -0.618,-0.015c0,0 0.214,0.072 0.587,0.199c0.37,0.132 0.904,0.288 1.519,0.554c0.622,0.236 1.325,0.563 2.06,0.923c0.729,0.379 1.481,0.811 2.199,1.278c0.708,0.484 1.39,0.984 1.976,1.503c0.42,0.352 0.771,0.704 1.093,1.042c-0.439,0.16 -0.878,0.306 -1.316,0.475c-6.64,2.563 -12.706,6.113 -17.996,10.476c-0.096,-0.033 -0.188,-0.066 -0.288,-0.099c-0.716,-0.22 -1.543,-0.456 -2.436,-0.608c-0.889,-0.172 -1.839,-0.27 -2.778,-0.333c-0.942,-0.045 -1.874,-0.035 -2.738,0.009Z" style="fill:rgb(35,31,32);fill-rule:nonzero;"/>
            </g>
            <g transform="matrix(2.6067,0,0,2.6067,-49.8708,-487.729)">
                <path d="M177.205,259.326c0.069,0.131 0.204,0.212 0.351,0.215l0.007,0c0.145,0 0.279,-0.077 0.352,-0.203c0.043,-0.073 4.457,-7.406 18.423,-7.406c4.292,0 9.088,0.69 14.255,2.051c0.119,0.033 0.245,0.008 0.344,-0.065c0.099,-0.072 0.159,-0.185 0.165,-0.308c0.006,-0.117 0.131,-2.91 -0.62,-4.602c-0.04,-0.09 -0.111,-0.162 -0.201,-0.203c-0.066,-0.031 -6.727,-3.064 -15.374,-3.064c-8.368,0 -15.719,2.728 -21.849,8.109c-0.083,0.072 -0.133,0.177 -0.138,0.288c-0.004,0.111 0.037,0.219 0.114,0.299c0.035,0.036 3.486,3.603 4.171,4.889Z" style="fill:rgb(35,31,32);fill-rule:nonzero;"/>
            </g>
            <g transform="matrix(2.6067,0,0,2.6067,-49.8708,-487.729)">
                <path d="M222.344,260.16c4.823,2.893 10.811,11.867 10.87,11.958c0.078,0.116 0.207,0.181 0.339,0.181c0.063,0 0.128,-0.015 0.189,-0.047c0.183,-0.097 0.265,-0.317 0.187,-0.51c-5.045,-12.521 -10.929,-15.932 -11.178,-16.071c-0.13,-0.073 -0.292,-0.068 -0.417,0.013c-0.126,0.081 -0.198,0.225 -0.185,0.375c0.153,1.868 0.001,3.701 0,3.718c-0.013,0.155 0.063,0.303 0.195,0.383Z" style="fill:rgb(35,31,32);fill-rule:nonzero;"/>
            </g>
            <g transform="matrix(2.6067,0,0,2.6067,-49.8708,-487.729)">
                <path d="M254.682,262.647c0.079,0.091 0.191,0.14 0.306,0.14c0.049,-0 0.099,-0.009 0.147,-0.027c0.158,-0.062 0.262,-0.217 0.259,-0.388c-0.003,-0.124 -0.084,-3.057 -1.233,-4.564c-0.038,-0.05 -0.086,-0.09 -0.143,-0.118c-0.249,-0.123 -6.152,-3.016 -11.316,-3.287c-0.207,-0.01 -0.375,0.125 -0.418,0.319c-0.041,0.195 0.064,0.391 0.25,0.464c0.085,0.034 8.605,3.394 12.148,7.461Z" style="fill:rgb(35,31,32);fill-rule:nonzero;"/>
            </g>
            <g transform="matrix(2.6067,0,0,2.6067,-49.8708,-487.729)">
                <path d="M281.403,278.162c-0.722,-0.2 -1.353,-0.326 -1.816,-0.396c-0.02,-0.002 -0.033,-0.004 -0.052,-0.006c-5.36,-10.079 -12.327,-14.088 -12.45,-14.156c-0.144,-0.079 -0.32,-0.064 -0.448,0.038c-0.128,0.101 -0.183,0.27 -0.138,0.428c0.517,1.834 0.459,3.958 0.458,3.979c-0.003,0.11 0.038,0.217 0.114,0.295c5.46,5.613 7.992,11.861 9.054,17.411c-0.343,0.083 -0.688,0.176 -1.028,0.278c-0.606,0.195 -1.193,0.422 -1.729,0.655c-0.531,0.246 -1.015,0.482 -1.415,0.715c-0.408,0.212 -0.724,0.431 -0.952,0.569c-0.224,0.141 -0.353,0.222 -0.353,0.222c0,-0 0.147,-0.039 0.404,-0.108c0.258,-0.064 0.616,-0.176 1.061,-0.256c0.438,-0.1 0.955,-0.179 1.503,-0.252c0.551,-0.059 1.135,-0.098 1.713,-0.103c0.374,0.004 0.738,0.023 1.094,0.05c1.11,7.848 -0.584,13.901 -0.614,14.007c-0.045,0.152 0.003,0.315 0.122,0.419c4.274,3.742 8.649,9.354 8.692,9.41c0.078,0.101 0.197,0.157 0.32,0.157c0.039,0 0.078,-0.005 0.116,-0.017c0.16,-0.047 0.275,-0.188 0.289,-0.355c0.35,-4.186 0.356,-8.035 0.109,-11.587c0.072,0.011 0.128,0.015 0.203,0.027c0.589,0.113 1.294,0.255 2.036,0.499c0.75,0.225 1.534,0.541 2.319,0.888c0.776,0.364 1.539,0.776 2.245,1.195c0.693,0.436 1.342,0.861 1.87,1.265c0.55,0.382 0.963,0.755 1.271,1c0.304,0.25 0.478,0.393 0.478,0.393c-0,-0 -0.123,-0.188 -0.338,-0.517c-0.222,-0.325 -0.514,-0.815 -0.932,-1.352c-0.396,-0.56 -0.902,-1.177 -1.467,-1.836c-0.579,-0.644 -1.229,-1.311 -1.926,-1.947c-0.707,-0.621 -1.446,-1.226 -2.195,-1.734c-0.738,-0.526 -1.489,-0.946 -2.149,-1.298c-0.668,-0.339 -1.261,-0.589 -1.701,-0.75c-0.055,-0.018 -0.098,-0.033 -0.146,-0.05c-0.714,-5.254 -2.008,-9.75 -3.594,-13.561c0.482,0.001 1,0.013 1.567,0.08c0.779,0.071 1.611,0.224 2.449,0.408c0.832,0.201 1.662,0.452 2.438,0.723c0.766,0.288 1.487,0.575 2.085,0.866c0.615,0.265 1.095,0.546 1.446,0.725c0.347,0.185 0.546,0.29 0.546,0.29c0,-0 -0.158,-0.159 -0.435,-0.438c-0.281,-0.275 -0.665,-0.697 -1.182,-1.14c-0.5,-0.469 -1.119,-0.973 -1.804,-1.506c-0.695,-0.515 -1.466,-1.039 -2.276,-1.524c-0.816,-0.467 -1.662,-0.912 -2.497,-1.261c-0.828,-0.367 -1.647,-0.629 -2.365,-0.842Z" style="fill:rgb(35,31,32);fill-rule:nonzero;"/>
            </g>
        </g>
        <g id="top_roots">
            <g transform="matrix(2.6067,0,0,2.6067,-49.8708,-487.729)">
                <path d="M153.363,392.265c0.057,0.108 0.16,0.185 0.281,0.209c0.025,0.005 0.052,0.008 0.078,0.008c0.094,-0 0.187,-0.033 0.26,-0.095l8.205,-6.852c0.168,-0.14 0.194,-0.387 0.061,-0.56c-0.016,-0.02 -1.545,-2.033 -1.247,-5.475c0.281,-3.24 2.293,-8.404 10.281,-14.602c0.089,-0.069 0.145,-0.172 0.155,-0.284c0.01,-0.113 -0.027,-0.223 -0.103,-0.307l-3.966,-4.418c-0.121,-0.136 -0.32,-0.174 -0.481,-0.093c-0.12,0.059 -11.944,6.005 -15.339,16.452c-1.672,5.145 -1.062,10.534 1.815,16.017Z" style="fill:rgb(35,31,32);fill-rule:nonzero;"/>
            </g>
            <g transform="matrix(2.6067,0,0,2.6067,-49.8708,-487.729)">
                <path d="M167.92,368.502c-0.123,-0.014 -0.247,0.032 -0.334,0.122c-0.135,0.139 -3.337,3.48 -5.314,8.333c-0.045,0.112 -0.039,0.239 0.02,0.346c0.036,0.066 3.641,6.643 9.492,12.372c0.012,0.019 0.031,0.03 0.047,0.047c0.01,0.01 0.019,0.02 0.029,0.03c0.004,0.004 0.01,0.002 0.013,0.005c0.031,0.027 0.055,0.062 0.095,0.079c0.05,0.021 0.104,0.032 0.157,0.032c0.003,-0 0.006,-0.004 0.009,-0.004c0.004,0 0.006,0.004 0.01,0.004c0.053,-0 0.106,-0.011 0.157,-0.032c0.039,-0.017 0.063,-0.052 0.095,-0.079c0.003,-0.003 0.009,-0.001 0.012,-0.005c0.01,-0.01 0.02,-0.02 0.03,-0.03c0.015,-0.017 0.035,-0.028 0.047,-0.047c5.851,-5.729 9.456,-12.306 9.492,-12.372c0.058,-0.107 0.065,-0.234 0.019,-0.346c-1.976,-4.853 -5.178,-8.194 -5.313,-8.333c-0.088,-0.09 -0.211,-0.136 -0.335,-0.122c-0.124,0.013 -0.235,0.082 -0.301,0.188c-1.876,3.001 -3.344,4.529 -3.913,5.068c-0.568,-0.539 -2.036,-2.067 -3.912,-5.068c-0.067,-0.106 -0.178,-0.175 -0.302,-0.188Z" style="fill:rgb(35,31,32);fill-rule:nonzero;"/>
            </g>
            <g transform="matrix(2.6067,0,0,2.6067,-49.8708,-487.729)">
                <path d="M171.864,364.301c0.036,0.033 0.068,0.074 0.116,0.092c0.047,0.018 0.096,0.027 0.145,0.027c0.003,-0 0.006,-0.002 0.009,-0.002c0.004,0 0.007,0.002 0.01,0.002c0.048,-0 0.097,-0.009 0.145,-0.027c0.048,-0.018 0.079,-0.059 0.116,-0.092c0.007,-0.006 0.015,-0.009 0.022,-0.015l0.004,-0.005c0.019,-0.021 0.04,-0.036 0.054,-0.06l6.935,-7.712c0.085,-0.094 0.121,-0.224 0.097,-0.348c-0.838,-4.329 -3.472,-5.829 -3.583,-5.89c-0.166,-0.093 -0.378,-0.057 -0.504,0.09l-3.296,3.825l-3.296,-3.825c-0.125,-0.147 -0.337,-0.183 -0.503,-0.09c-0.112,0.061 -2.745,1.561 -3.583,5.89c-0.024,0.124 0.012,0.254 0.097,0.348l6.935,7.712c0.014,0.024 0.034,0.039 0.053,0.06l0.005,0.005c0.006,0.006 0.015,0.009 0.022,0.015Z" style="fill:rgb(35,31,32);fill-rule:nonzero;"/>
            </g>
            <g transform="matrix(2.6067,0,0,2.6067,-49.8708,-487.729)">
                <path d="M153.919,420.436c0.079,0.085 0.188,0.131 0.299,0.131c0.068,0 0.135,-0.016 0.197,-0.051c0.193,-0.106 4.746,-2.646 6.944,-5.613c0.099,-0.133 0.107,-0.314 0.02,-0.455c-0.07,-0.113 -6.782,-11.44 9.887,-23.121c0.093,-0.066 0.155,-0.168 0.17,-0.282c0.014,-0.112 -0.02,-0.227 -0.094,-0.314l-5.68,-6.671c-0.134,-0.158 -0.363,-0.189 -0.533,-0.076c-0.606,0.401 -14.837,9.955 -16.335,22.156c-0.624,5.091 1.1,9.901 5.125,14.296Z" style="fill:rgb(35,31,32);fill-rule:nonzero;"/>
            </g>
            <g transform="matrix(2.6067,0,0,2.6067,-49.8708,-487.729)">
                <path d="M172.484,417.104c0.746,-0.79 8.878,-9.404 10.56,-12.029c0.062,-0.096 0.08,-0.216 0.049,-0.327c-0.059,-0.214 -1.503,-5.301 -5.953,-9.19c-0.158,-0.138 -0.392,-0.134 -0.545,0.009l-4.461,4.193l-4.46,-4.193c-0.153,-0.143 -0.388,-0.147 -0.545,-0.009c-4.45,3.889 -5.895,8.976 -5.954,9.19c-0.03,0.111 -0.012,0.231 0.05,0.327c1.681,2.625 9.813,11.239 10.559,12.029c0.013,0.021 0.033,0.034 0.05,0.053c0.003,0.002 0.013,0.012 0.015,0.015c0.009,0.01 0.023,0.014 0.034,0.023c0.031,0.025 0.054,0.059 0.092,0.075c0.048,0.019 0.099,0.028 0.15,0.028c0.003,-0 0.006,-0.002 0.009,-0.002c0.004,0 0.007,0.002 0.01,0.002c0.05,-0 0.101,-0.009 0.149,-0.028c0.039,-0.016 0.062,-0.05 0.093,-0.075c0.01,-0.009 0.024,-0.013 0.034,-0.023c0.002,-0.003 0.012,-0.013 0.014,-0.015c0.017,-0.019 0.037,-0.032 0.05,-0.053Z" style="fill:rgb(35,31,32);fill-rule:nonzero;"/>
            </g>
            <g transform="matrix(2.6067,0,0,2.6067,-49.8708,-487.729)">
                <path d="M172.373,337.746c-0.011,-0.008 -0.016,-0.02 -0.028,-0.027c-0.065,-0.037 -0.137,-0.053 -0.211,-0.052c-0.072,-0.001 -0.146,0.015 -0.211,0.052c-0.011,0.007 -0.016,0.019 -0.027,0.027c-0.882,0.527 -21.218,12.912 -15.029,26.995c0.05,0.112 0.146,0.195 0.263,0.228c0.036,0.01 0.072,0.014 0.109,0.014c0.083,-0 0.165,-0.025 0.234,-0.074l6.88,-4.868c0.162,-0.116 0.216,-0.333 0.128,-0.513c-0.029,-0.06 -2.833,-6.119 7.653,-13.646c10.486,7.527 7.683,13.586 7.653,13.646c-0.087,0.18 -0.034,0.397 0.129,0.513l6.879,4.868c0.07,0.049 0.152,0.074 0.235,0.074c0.036,-0 0.073,-0.004 0.108,-0.014c0.117,-0.033 0.214,-0.116 0.263,-0.228c6.19,-14.083 -14.147,-26.468 -15.028,-26.995Z" style="fill:rgb(35,31,32);fill-rule:nonzero;"/>
            </g>
            <g transform="matrix(2.6067,0,0,2.6067,-49.8708,-487.729)">
                <path d="M168.531,423.047c-0.067,-0.1 -0.173,-0.165 -0.292,-0.178c-0.117,-0.013 -0.237,0.026 -0.323,0.107c-0.022,0.02 -2.207,2.065 -6.277,5.579c-0.088,0.075 -0.139,0.187 -0.14,0.303c-0.001,0.118 0.048,0.229 0.136,0.307c0.056,0.05 5.622,4.976 10.26,7.416c0.008,0.006 0.011,0.016 0.02,0.021c0.011,0.006 0.024,0.004 0.036,0.01c0.001,0.001 0.003,0.002 0.005,0.002c0.012,0.007 0.025,0.005 0.038,0.01c0.044,0.015 0.086,0.037 0.131,0.037c0.003,0 0.006,-0.003 0.009,-0.003c0.004,0 0.007,0.003 0.01,0.003c0.045,0 0.087,-0.022 0.13,-0.037c0.013,-0.005 0.027,-0.003 0.039,-0.01c0.002,0 0.003,-0.001 0.005,-0.002c0.012,-0.006 0.025,-0.004 0.036,-0.01c0.008,-0.005 0.012,-0.015 0.02,-0.021c4.638,-2.44 10.204,-7.366 10.26,-7.416c0.087,-0.078 0.137,-0.189 0.136,-0.307c-0.001,-0.116 -0.052,-0.228 -0.141,-0.303c-4.069,-3.514 -6.254,-5.559 -6.276,-5.579c-0.087,-0.081 -0.206,-0.12 -0.324,-0.107c-0.118,0.013 -0.225,0.078 -0.291,0.178c-0.781,1.172 -2.922,2.563 -3.604,2.989c-0.681,-0.426 -2.822,-1.817 -3.603,-2.989Z" style="fill:rgb(35,31,32);fill-rule:nonzero;"/>
            </g>
            <g transform="matrix(2.6067,0,0,2.6067,-49.8708,-487.729)">
                <path d="M190.286,392.387c0.074,0.062 0.166,0.095 0.26,0.095c0.027,-0 0.053,-0.003 0.079,-0.008c0.12,-0.024 0.223,-0.101 0.28,-0.209c2.877,-5.483 3.488,-10.872 1.816,-16.017c-3.396,-10.447 -15.22,-16.393 -15.339,-16.452c-0.161,-0.081 -0.361,-0.043 -0.481,0.093l-3.967,4.418c-0.076,0.084 -0.113,0.194 -0.102,0.307c0.009,0.112 0.066,0.215 0.155,0.284c7.988,6.198 9.999,11.362 10.28,14.602c0.298,3.442 -1.23,5.455 -1.246,5.475c-0.134,0.173 -0.107,0.42 0.061,0.56l8.204,6.852Z" style="fill:rgb(35,31,32);fill-rule:nonzero;"/>
            </g>
            <g transform="matrix(2.6067,0,0,2.6067,-49.8708,-487.729)">
                <path d="M189.854,420.516c0.062,0.035 0.129,0.051 0.196,0.051c0.111,0 0.221,-0.046 0.299,-0.131c4.026,-4.395 5.75,-9.205 5.125,-14.296c-1.497,-12.201 -15.729,-21.755 -16.334,-22.156c-0.17,-0.113 -0.399,-0.082 -0.534,0.076l-5.68,6.671c-0.073,0.087 -0.107,0.202 -0.093,0.314c0.015,0.114 0.076,0.216 0.169,0.282c16.67,11.681 9.957,23.008 9.888,23.121c-0.087,0.141 -0.079,0.322 0.019,0.455c2.199,2.967 6.752,5.507 6.945,5.613Z" style="fill:rgb(35,31,32);fill-rule:nonzero;"/>
            </g>
        </g>
        <g id="down_roots">
            <g transform="matrix(2.6067,0,0,2.6067,-49.8708,-487.729)">
                <path d="M141.372,430.202c1.427,0 2.871,0.14 4.291,0.416c3.723,0.722 7.49,0.398 10.811,-0.934c8.309,-3.332 14.807,-11.102 14.872,-11.18c0.129,-0.157 0.123,-0.386 -0.015,-0.535l-6.086,-6.559c-0.086,-0.092 -0.206,-0.138 -0.332,-0.128c-0.125,0.01 -0.238,0.079 -0.306,0.183c-6.302,9.723 -11.907,11.176 -14.686,11.176c-1.412,-0 -2.244,-0.367 -2.329,-0.396c-1.715,-0.394 -3.441,-0.594 -5.131,-0.594c-6.007,0 -10.459,2.53 -12.579,4.037c-2.214,1.577 -4.297,2.765 -6.369,3.632c-4.246,1.778 -8.038,2.68 -11.273,2.68c-9.653,0 -11.337,-7.886 -11.407,-8.232c-4.209,-18.603 -17.927,-19.914 -18.049,-19.923c-5.007,-0.603 -8.656,-2.475 -10.845,-5.565c-3.418,-4.825 -2.089,-11.057 -2.075,-11.119c0.044,-0.201 -0.068,-0.403 -0.261,-0.471c-0.196,-0.069 -0.408,0.018 -0.499,0.202c-5.769,11.63 0.761,17.281 5.168,19.615c1.904,1.008 4.076,1.704 6.455,2.07c11.041,1.697 12.397,15.872 12.412,16.04c1.983,13.082 11.465,15.827 19.07,15.826c0.889,-0 1.812,-0.036 2.747,-0.11c5.312,-0.414 10.625,-2.645 15.366,-6.45c3.042,-2.443 6.76,-3.681 11.05,-3.681Z" style="fill:rgb(35,31,32);fill-rule:nonzero;"/>
            </g>
            <g transform="matrix(2.6067,0,0,2.6067,-49.8708,-487.729)">
                <path d="M101.053,421.902c0.033,0.18 0.183,0.316 0.365,0.331c0.079,0.007 7.89,0.756 11.84,8.968c0.068,0.141 0.21,0.23 0.366,0.23c0.01,0 0.021,0 0.03,-0.001c0.223,-0.017 5.492,-0.438 8.128,-2.449c0.142,-0.108 0.196,-0.296 0.134,-0.464c-0.052,-0.137 -5.277,-13.746 -19.514,-13.746c-1.224,-0 -2.498,0.101 -3.785,0.301c-0.146,0.023 -0.268,0.123 -0.319,0.262c-0.05,0.14 -0.021,0.295 0.077,0.407c0.019,0.022 1.966,2.275 2.678,6.161Z" style="fill:rgb(35,31,32);fill-rule:nonzero;"/>
            </g>
            <g transform="matrix(2.6067,0,0,2.6067,-49.8708,-487.729)">
                <path d="M89.946,416.491c-0.064,-0.009 -6.367,-0.978 -7.776,-7.127c-0.04,-0.174 -0.189,-0.302 -0.368,-0.314c-0.703,-0.049 -2.646,-0.224 -3.188,-0.445c-0.12,-0.047 -0.257,-0.037 -0.367,0.032c-0.111,0.069 -0.181,0.186 -0.19,0.315c-0.022,0.301 -0.482,7.43 3.632,11.849c2.063,2.216 4.913,3.34 8.471,3.34l0.002,-0c0.554,-0 1.135,-0.027 1.725,-0.082c0.114,-0.011 0.217,-0.068 0.285,-0.158c0.069,-0.09 0.097,-0.205 0.077,-0.317c-0.025,-0.142 -0.631,-3.529 -1.984,-6.845c-0.055,-0.133 -0.176,-0.228 -0.319,-0.248Z" style="fill:rgb(35,31,32);fill-rule:nonzero;"/>
            </g>
            <g transform="matrix(2.6067,0,0,2.6067,-49.8708,-487.729)">
                <path d="M135.938,431.274c-0.17,0.061 -4.186,1.514 -7.515,4.687c-0.131,0.125 -0.164,0.322 -0.08,0.483c0.086,0.16 0.267,0.247 0.444,0.207c0.011,-0.002 1.272,-0.262 3.272,-0.262c3.454,-0 8.675,0.747 13.93,4.304c0.069,0.046 0.148,0.07 0.228,0.07c0.082,0 0.165,-0.026 0.236,-0.076c0.649,-0.464 3.888,-2.861 3.888,-4.432c0,-0.119 -0.051,-0.232 -0.142,-0.309c-0.227,-0.194 -5.651,-4.762 -12.688,-4.762c-0.493,0 -0.99,0.023 -1.573,0.09Z" style="fill:rgb(35,31,32);fill-rule:nonzero;"/>
            </g>
            <g transform="matrix(2.6067,0,0,2.6067,-49.8708,-487.729)">
                <path d="M274.665,386.69c-0.193,0.068 -0.305,0.27 -0.261,0.471c0.014,0.062 1.343,6.294 -2.075,11.119c-2.189,3.09 -5.838,4.962 -10.845,5.565c-0.122,0.009 -13.84,1.32 -18.049,19.923c-0.069,0.346 -1.754,8.232 -11.407,8.232c-3.234,0 -7.027,-0.902 -11.272,-2.68c-2.072,-0.867 -4.156,-2.055 -6.371,-3.632c-2.118,-1.507 -6.57,-4.037 -12.578,-4.037c-1.69,0 -3.416,0.2 -5.131,0.594c-0.084,0.029 -0.917,0.396 -2.328,0.396c-2.78,-0 -8.384,-1.453 -14.686,-11.176c-0.068,-0.104 -0.181,-0.173 -0.306,-0.183c-0.126,-0.01 -0.247,0.036 -0.332,0.128l-6.086,6.559c-0.138,0.149 -0.145,0.378 -0.015,0.535c0.065,0.078 6.562,7.848 14.871,11.18c3.321,1.332 7.089,1.656 10.811,0.934c1.42,-0.276 2.864,-0.416 4.291,-0.416c4.291,0 8.008,1.238 11.051,3.681c4.741,3.805 10.054,6.036 15.366,6.45c0.934,0.074 1.858,0.11 2.746,0.11c7.606,0.001 17.087,-2.744 19.07,-15.826c0.016,-0.168 1.371,-14.343 12.412,-16.04c2.379,-0.366 4.551,-1.062 6.455,-2.07c4.407,-2.334 10.937,-7.985 5.168,-19.615c-0.092,-0.184 -0.303,-0.271 -0.499,-0.202Z" style="fill:rgb(35,31,32);fill-rule:nonzero;"/>
            </g>
            <g transform="matrix(2.6067,0,0,2.6067,-49.8708,-487.729)">
                <path d="M224.275,440.745c-2.431,-0.931 -6.297,-2.562 -6.98,-3.245c-0.086,-0.084 -0.206,-0.125 -0.323,-0.117c-0.119,0.011 -0.228,0.074 -0.297,0.173c-0.042,0.06 -4.28,6.032 -11.179,6.032c-2.357,0 -4.784,-0.694 -7.215,-2.063c-1.752,-0.986 -3.414,-2.397 -5.08,-4.312c-1.291,-1.484 -4.402,-4.232 -10.731,-5.948c-0.127,-0.036 -0.265,-0.005 -0.367,0.081c-0.06,0.05 -5.977,4.99 -9.969,6.279c-3.991,-1.289 -9.908,-6.229 -9.968,-6.279c-0.103,-0.086 -0.241,-0.117 -0.368,-0.081c-6.328,1.716 -9.44,4.464 -10.731,5.948c-1.666,1.915 -3.327,3.326 -5.08,4.312c-2.43,1.369 -4.858,2.063 -7.214,2.063c-6.899,0 -11.138,-5.972 -11.179,-6.032c-0.069,-0.099 -0.178,-0.162 -0.298,-0.173c-0.117,-0.008 -0.237,0.033 -0.322,0.117c-0.683,0.683 -4.549,2.314 -6.981,3.245c-0.112,0.043 -0.2,0.133 -0.239,0.246c-0.039,0.114 -0.025,0.239 0.037,0.342c4.483,7.441 10.459,11.214 17.761,11.214l0.002,-0c5.949,-0.001 11.311,-2.587 13.978,-4.128c1.128,-0.651 2.215,-1.501 3.233,-2.523c2.566,-2.579 5.251,-3.886 7.981,-3.886c5.022,0 8.676,4.446 9.037,4.901c0.048,0.084 0.117,0.154 0.213,0.187c0.008,0.002 0.017,-0.002 0.025,0c0.036,0.011 0.075,0 0.113,0.001c0.038,-0.001 0.077,0.01 0.114,-0.001c0.008,-0.002 0.016,0.002 0.024,0c0.097,-0.033 0.166,-0.103 0.213,-0.187c0.362,-0.455 4.016,-4.901 9.037,-4.901c2.731,0 5.416,1.307 7.981,3.886c1.018,1.022 2.106,1.872 3.233,2.523c2.667,1.541 8.029,4.127 13.978,4.128l0.002,-0c7.302,-0 13.278,-3.773 17.762,-11.214c0.062,-0.103 0.075,-0.228 0.036,-0.342c-0.039,-0.113 -0.126,-0.203 -0.239,-0.246Z" style="fill:rgb(35,31,32);fill-rule:nonzero;"/>
            </g>
            <g transform="matrix(2.6067,0,0,2.6067,-49.8708,-487.729)">
                <path d="M230.614,431.43c0.01,0.001 0.021,0.001 0.031,0.001c0.155,0 0.298,-0.089 0.365,-0.23c3.95,-8.212 11.762,-8.961 11.84,-8.968c0.183,-0.015 0.333,-0.151 0.365,-0.331c0.713,-3.886 2.659,-6.139 2.679,-6.161c0.097,-0.112 0.127,-0.267 0.076,-0.407c-0.051,-0.139 -0.173,-0.239 -0.319,-0.262c-1.287,-0.2 -2.56,-0.301 -3.785,-0.301c-14.236,-0 -19.462,13.609 -19.513,13.746c-0.062,0.168 -0.008,0.356 0.134,0.464c2.635,2.011 7.904,2.432 8.127,2.449Z" style="fill:rgb(35,31,32);fill-rule:nonzero;"/>
            </g>
            <g transform="matrix(2.6067,0,0,2.6067,-49.8708,-487.729)">
                <path d="M266.021,408.637c-0.11,-0.069 -0.247,-0.079 -0.367,-0.032c-0.542,0.221 -2.485,0.396 -3.188,0.445c-0.179,0.012 -0.328,0.14 -0.369,0.314c-1.408,6.149 -7.711,7.118 -7.775,7.127c-0.143,0.02 -0.264,0.115 -0.318,0.248c-1.354,3.316 -1.96,6.703 -1.985,6.845c-0.02,0.112 0.008,0.227 0.077,0.317c0.069,0.09 0.172,0.147 0.285,0.158c0.59,0.055 1.171,0.082 1.726,0.082l0.001,-0c3.557,-0 6.407,-1.124 8.471,-3.34c4.114,-4.419 3.654,-11.548 3.633,-11.849c-0.01,-0.129 -0.08,-0.246 -0.191,-0.315Z" style="fill:rgb(35,31,32);fill-rule:nonzero;"/>
            </g>
            <g transform="matrix(2.6067,0,0,2.6067,-49.8708,-487.729)">
                <path d="M184.274,443.517c-0.116,-0.017 -0.232,0.015 -0.321,0.091c-0.058,0.049 -5.931,4.946 -11.819,5.668c-5.887,-0.722 -11.759,-5.619 -11.819,-5.668c-0.088,-0.076 -0.205,-0.108 -0.321,-0.091c-3.213,0.476 -4.851,3.599 -4.919,3.732c-0.079,0.154 -0.052,0.342 0.068,0.466c9.095,9.455 16.618,10.796 16.934,10.849c0.014,0.002 0.028,0.002 0.043,0.003c0.002,0 0.003,0.002 0.005,0.002c0.003,-0 0.006,-0.001 0.009,-0.001c0.003,-0 0.007,0.001 0.01,0.001c0.002,-0 0.003,-0.002 0.004,-0.002c0.015,-0.001 0.029,-0.001 0.043,-0.003c0.316,-0.053 7.84,-1.394 16.934,-10.849c0.121,-0.124 0.148,-0.312 0.069,-0.466c-0.069,-0.133 -1.706,-3.256 -4.92,-3.732Z" style="fill:rgb(35,31,32);fill-rule:nonzero;"/>
            </g>
            <g transform="matrix(2.6067,0,0,2.6067,-49.8708,-487.729)">
                <path d="M197.816,440.687c0.071,0.05 0.153,0.076 0.236,0.076c0.079,0 0.158,-0.024 0.228,-0.07c5.255,-3.557 10.475,-4.304 13.93,-4.304c2,-0 3.259,0.26 3.271,0.262c0.178,0.04 0.359,-0.047 0.443,-0.207c0.085,-0.161 0.053,-0.358 -0.078,-0.483c-3.33,-3.173 -7.346,-4.626 -7.515,-4.687c-0.583,-0.067 -1.08,-0.09 -1.574,-0.09c-7.037,0 -12.461,4.568 -12.688,4.762c-0.09,0.077 -0.142,0.19 -0.142,0.309c0,1.571 3.24,3.968 3.889,4.432Z" style="fill:rgb(35,31,32);fill-rule:nonzero;"/>
            </g>
        </g>
        <g id="leafage">
            <g transform="matrix(2.6067,0,0,2.6067,-49.8708,-487.729)">
                <path data-start="0" d="M75.206,380.324c0,-0 -4.692,-3.948 -4.471,-10.578c0.033,-0.974 -0.022,-1.959 -0.332,-2.883c-0.714,-2.129 -2.77,-4.935 -8.688,-3.585c0,0 1.133,4.421 4.984,9.716c-0,0 -3.916,-1.373 -7.05,-6.55c-0,-0 -3.469,15.833 15.557,13.88Z" style="fill:rgb(35,31,32);fill-rule:nonzero;"/>
            </g>
            <g transform="matrix(2.6067,0,0,2.6067,-49.8708,-487.729)">
                <path data-start="0" d="M105.938,261.171c0.823,-0.521 1.488,-1.25 2.078,-2.025c4.017,-5.279 10.149,-5.375 10.149,-5.375c-13.515,-13.534 -20.829,0.931 -20.829,0.931c5.701,-2.034 9.603,-0.624 9.603,-0.624c-6.33,1.672 -10.002,4.383 -10.002,4.383c3.736,4.785 7.102,3.909 9.001,2.71Z" style="fill:rgb(35,31,32);fill-rule:nonzero;"/>
            </g>
            <g transform="matrix(2.6067,0,0,2.6067,-49.8708,-487.729)">
                <path data-start="0" data-async d="M113.987,279.382c0.847,-0.481 1.659,-1.042 2.285,-1.788c1.442,-1.722 2.76,-4.941 -1.482,-9.282c0,0 -3.178,3.276 -5.681,9.326c0,0 -0.875,-4.056 1.902,-9.433c0,0 -15.314,5.315 -3.707,20.516c0,0 0.914,-6.063 6.683,-9.339Z" style="fill:rgb(35,31,32);fill-rule:nonzero;"/>
            </g>
            <g transform="matrix(2.6067,0,0,2.6067,-49.8708,-487.729)">
                <path data-start="0" d="M72.423,339.786c-0.284,-0.932 -0.653,-1.848 -1.245,-2.621c-1.363,-1.785 -4.215,-3.777 -9.381,-0.589c0,-0 2.5,3.818 7.854,7.587c0,0 -4.149,-0.036 -8.786,-3.924c0,0 1.828,16.106 19.204,8.115c0,0 -5.715,-2.222 -7.646,-8.568Z" style="fill:rgb(35,31,32);fill-rule:nonzero;"/>
            </g>
            <g transform="matrix(2.6067,0,0,2.6067,-49.8708,-487.729)">
                <path d="M80.149,322.19c-0.283,-0.931 -0.653,-1.847 -1.244,-2.621c-1.363,-1.784 -4.216,-3.776 -9.381,-0.589c0,-0 2.499,3.819 7.854,7.588c-0,-0 -4.149,-0.036 -8.787,-3.923c0,0 1.828,16.105 19.205,8.114c-0,-0 -5.716,-2.222 -7.647,-8.569Z" style="fill:rgb(35,31,32);fill-rule:nonzero;"/>
            </g>
            <g transform="matrix(2.6067,0,0,2.6067,-49.8708,-487.729)">
                <path d="M103.211,319.621c-0,-0 -5.716,-2.222 -7.647,-8.569c-0.284,-0.932 -0.653,-1.847 -1.245,-2.621c-1.363,-1.785 -4.214,-3.776 -9.38,-0.589c0,-0 2.499,3.819 7.854,7.588c-0,-0 -4.15,-0.036 -8.787,-3.924c-0,-0 1.828,16.106 19.205,8.115Z" style="fill:rgb(35,31,32);fill-rule:nonzero;"/>
            </g>
            <g transform="matrix(2.6067,0,0,2.6067,-49.8708,-487.729)">
                <path d="M120.449,312.464c-0.117,-0.967 -0.322,-1.932 -0.769,-2.797c-1.033,-1.995 -3.495,-4.452 -9.137,-2.21c-0,-0 1.799,4.194 6.416,8.836c-0,0 -4.08,-0.756 -7.97,-5.391c-0,-0 -0.999,16.179 17.502,11.329c-0,0 -5.243,-3.181 -6.042,-9.767Z" style="fill:rgb(35,31,32);fill-rule:nonzero;"/>
            </g>
            <g transform="matrix(2.6067,0,0,2.6067,-49.8708,-487.729)">
                <path d="M43.969,356.562c0,0 -0.701,-4.09 2.303,-9.343c-0,-0 -15.526,4.655 -4.581,20.339c0,-0 1.173,-6.019 7.077,-9.045c0.867,-0.444 1.702,-0.97 2.359,-1.689c1.515,-1.658 2.969,-4.818 -1.084,-9.337c-0,-0 -3.314,3.138 -6.074,9.075Z" style="fill:rgb(35,31,32);fill-rule:nonzero;"/>
            </g>
            <g transform="matrix(2.6067,0,0,2.6067,-49.8708,-487.729)">
                <path d="M45.942,336.333c0.967,-0.125 1.931,-0.336 2.792,-0.791c1.987,-1.047 4.426,-3.527 2.143,-9.152c-0,0 -4.182,1.829 -8.79,6.481c0,-0 0.727,-4.085 5.332,-8.01c-0,0 -16.185,-0.879 -11.198,17.585c0,-0 3.142,-5.266 9.721,-6.113Z" style="fill:rgb(35,31,32);fill-rule:nonzero;"/>
            </g>
            <g transform="matrix(2.6067,0,0,2.6067,-49.8708,-487.729)">
                <path d="M50.316,311.12c0.967,-0.125 1.931,-0.336 2.792,-0.791c1.987,-1.047 4.426,-3.527 2.143,-9.152c-0,0 -4.182,1.829 -8.79,6.481c-0,0 0.727,-4.085 5.332,-8.011c-0,-0 -16.185,-0.878 -11.198,17.586c0,-0 3.142,-5.266 9.721,-6.113Z" style="fill:rgb(35,31,32);fill-rule:nonzero;"/>
            </g>
            <g transform="matrix(2.6067,0,0,2.6067,-49.8708,-487.729)">
                <path d="M52.939,291.425c0.971,0.071 1.958,0.056 2.893,-0.217c2.156,-0.63 5.041,-2.574 3.926,-8.541c-0,-0 -4.463,0.958 -9.906,4.597c0,-0 1.526,-3.858 6.823,-6.785c-0,0 -15.684,-4.091 -14.483,14.997c0,0 4.13,-4.533 10.747,-4.051Z" style="fill:rgb(35,31,32);fill-rule:nonzero;"/>
            </g>
            <g transform="matrix(2.6067,0,0,2.6067,-49.8708,-487.729)">
                <path d="M151.387,243.438c0.935,0.274 1.922,0.289 2.894,0.218c6.616,-0.482 10.746,4.051 10.746,4.051c1.202,-19.088 -14.483,-14.998 -14.483,-14.998c5.297,2.928 6.824,6.786 6.824,6.786c-5.444,-3.639 -9.906,-4.597 -9.906,-4.597c-1.115,5.967 1.769,7.911 3.925,8.54Z" style="fill:rgb(35,31,32);fill-rule:nonzero;"/>
            </g>
            <g transform="matrix(2.6067,0,0,2.6067,-49.8708,-487.729)">
                <path d="M141.902,268.121c0.973,0.054 1.937,-0.154 2.868,-0.442c6.336,-1.965 11.383,1.519 11.383,1.519c-3.14,-18.866 -17.495,-11.339 -17.495,-11.339c5.821,1.655 8.179,5.069 8.179,5.069c-6.125,-2.315 -10.688,-2.24 -10.688,-2.24c0.262,6.064 3.511,7.306 5.753,7.433Z" style="fill:rgb(35,31,32);fill-rule:nonzero;"/>
            </g>
            <g transform="matrix(2.6067,0,0,2.6067,-49.8708,-487.729)">
                <path d="M142.217,288.374c3.929,1.116 5.52,3.421 5.52,3.421c-4.133,-1.563 -7.213,-1.513 -7.213,-1.513c0.176,4.093 2.369,4.931 3.883,5.017c0.656,0.037 1.307,-0.103 1.935,-0.298c4.277,-1.326 7.683,1.025 7.683,1.025c-2.12,-12.734 -11.808,-7.652 -11.808,-7.652Z" style="fill:rgb(35,31,32);fill-rule:nonzero;"/>
            </g>
            <g transform="matrix(2.6067,0,0,2.6067,-49.8708,-487.729)">
                <path d="M68.384,287.879c0.177,4.094 2.369,4.932 3.883,5.017c0.656,0.037 1.307,-0.103 1.935,-0.298c4.277,-1.326 7.683,1.026 7.683,1.026c-2.119,-12.734 -11.808,-7.653 -11.808,-7.653c3.928,1.116 5.52,3.421 5.52,3.421c-4.133,-1.563 -7.213,-1.513 -7.213,-1.513Z" style="fill:rgb(35,31,32);fill-rule:nonzero;"/>
            </g>
            <g transform="matrix(2.6067,0,0,2.6067,-49.8708,-487.729)">
                <path d="M90.842,276.651c3.119,2.657 5.226,1.62 6.318,0.57c0.474,-0.456 0.814,-1.029 1.099,-1.621c1.939,-4.037 5.98,-4.932 5.98,-4.932c-10.773,-7.113 -13.644,3.444 -13.644,3.444c3.492,-2.119 6.264,-1.717 6.264,-1.717c-3.958,1.965 -6.017,4.256 -6.017,4.256Z" style="fill:rgb(35,31,32);fill-rule:nonzero;"/>
            </g>
            <g transform="matrix(2.6067,0,0,2.6067,-49.8708,-487.729)">
                <path d="M124.003,282.833c-12.897,-0.532 -9.908,9.992 -9.908,9.992c1.898,-3.617 4.479,-4.703 4.479,-4.703c-2.376,3.726 -2.957,6.751 -2.957,6.751c4.043,0.665 5.312,-1.31 5.706,-2.774c0.17,-0.635 0.166,-1.301 0.104,-1.955c-0.422,-4.457 2.576,-7.311 2.576,-7.311Z" style="fill:rgb(35,31,32);fill-rule:nonzero;"/>
            </g>
            <g transform="matrix(2.6067,0,0,2.6067,-49.8708,-487.729)">
                <path d="M69.887,262.11c0.948,0.224 1.925,0.366 2.891,0.244c2.229,-0.279 5.386,-1.74 5.232,-7.808c0,0 -4.557,0.237 -10.509,2.965c-0,-0 2.119,-3.567 7.813,-5.615c0,-0 -14.835,-6.53 -16.68,12.506c-0,-0 4.798,-3.819 11.253,-2.292Z" style="fill:rgb(35,31,32);fill-rule:nonzero;"/>
            </g>
            <g transform="matrix(2.6067,0,0,2.6067,-49.8708,-487.729)">
                <path d="M82.453,237.093c0.77,0.597 1.6,1.131 2.53,1.422c2.144,0.669 5.622,0.648 7.998,-4.938c0,0 -4.246,-1.673 -10.793,-1.658c0,0 3.407,-2.367 9.439,-1.872c-0,-0 -10.795,-12.091 -20.365,4.469c0,-0 5.949,-1.488 11.191,2.577Z" style="fill:rgb(35,31,32);fill-rule:nonzero;"/>
            </g>
            <g transform="matrix(2.6067,0,0,2.6067,-49.8708,-487.729)">
                <path d="M103.897,220.149c0.615,0.756 1.303,1.464 2.143,1.957c1.937,1.137 5.33,1.902 8.907,-3.002c-0,0 -3.758,-2.59 -10.139,-4.055c-0,0 3.854,-1.536 9.617,0.311c0,-0 -7.781,-14.219 -20.847,-0.252c0,-0 6.131,-0.104 10.319,5.041Z" style="fill:rgb(35,31,32);fill-rule:nonzero;"/>
            </g>
            <g transform="matrix(2.6067,0,0,2.6067,-49.8708,-487.729)">
                <path d="M125.489,211.374c0.336,0.914 0.757,1.806 1.392,2.545c1.462,1.705 4.424,3.53 9.399,0.053c-0,-0 -2.714,-3.669 -8.274,-7.127c-0,-0 4.145,-0.201 8.996,3.416c-0,-0 -2.744,-15.975 -19.636,-7.006c-0,0 5.833,1.892 8.123,8.119Z" style="fill:rgb(35,31,32);fill-rule:nonzero;"/>
            </g>
            <g transform="matrix(2.6067,0,0,2.6067,-49.8708,-487.729)">
                <path d="M115.377,240.007c-0,0 2.966,-1.214 7.431,0.17c-0,0 -6.114,-10.925 -16.103,-0.042c0,0 4.735,-0.125 8.006,3.818c0.481,0.579 1.018,1.121 1.67,1.495c1.504,0.864 4.13,1.431 6.857,-2.383c-0,0 -2.921,-1.973 -7.861,-3.058Z" style="fill:rgb(35,31,32);fill-rule:nonzero;"/>
            </g>
            <g transform="matrix(2.6067,0,0,2.6067,-49.8708,-487.729)">
                <path d="M154.926,212.091c-0.123,0.742 -0.181,1.502 -0.037,2.241c0.331,1.702 1.622,4.058 6.29,3.623c0,0 -0.421,-3.499 -2.834,-7.944c0,-0 2.86,1.447 4.736,5.728c-0,0 4.256,-11.773 -10.51,-12.2c-0,0 3.195,3.497 2.355,8.552Z" style="fill:rgb(35,31,32);fill-rule:nonzero;"/>
            </g>
            <g transform="matrix(2.6067,0,0,2.6067,-49.8708,-487.729)">
                <path d="M277.569,372.994c3.851,-5.295 4.984,-9.716 4.984,-9.716c-5.918,-1.35 -7.974,1.456 -8.688,3.585c-0.31,0.924 -0.365,1.909 -0.332,2.883c0.221,6.63 -4.471,10.578 -4.471,10.578c19.026,1.953 15.557,-13.88 15.557,-13.88c-3.134,5.177 -7.05,6.55 -7.05,6.55Z" style="fill:rgb(35,31,32);fill-rule:nonzero;"/>
            </g>
            <g transform="matrix(2.6067,0,0,2.6067,-49.8708,-487.729)">
                <path d="M226.104,253.771c0,-0 6.132,0.096 10.149,5.375c0.59,0.775 1.254,1.504 2.078,2.025c1.898,1.199 5.265,2.075 9,-2.71c-0,-0 -3.671,-2.711 -10.002,-4.383c-0,0 3.903,-1.41 9.603,0.624c0,0 -7.314,-14.465 -20.828,-0.931Z" style="fill:rgb(35,31,32);fill-rule:nonzero;"/>
            </g>
            <g transform="matrix(2.6067,0,0,2.6067,-49.8708,-487.729)">
                <path d="M236.965,288.721c11.606,-15.201 -3.707,-20.516 -3.707,-20.516c2.777,5.377 1.902,9.433 1.902,9.433c-2.504,-6.05 -5.681,-9.326 -5.681,-9.326c-4.243,4.341 -2.925,7.56 -1.482,9.282c0.626,0.746 1.437,1.307 2.285,1.788c5.768,3.276 6.683,9.339 6.683,9.339Z" style="fill:rgb(35,31,32);fill-rule:nonzero;"/>
            </g>
            <g transform="matrix(2.6067,0,0,2.6067,-49.8708,-487.729)">
                <path d="M283.403,340.239c-4.637,3.888 -8.786,3.924 -8.786,3.924c5.354,-3.769 7.854,-7.587 7.854,-7.587c-5.166,-3.188 -8.018,-1.196 -9.381,0.589c-0.591,0.773 -0.961,1.689 -1.245,2.621c-1.93,6.346 -7.646,8.568 -7.646,8.568c17.376,7.991 19.204,-8.115 19.204,-8.115Z" style="fill:rgb(35,31,32);fill-rule:nonzero;"/>
            </g>
            <g transform="matrix(2.6067,0,0,2.6067,-49.8708,-487.729)">
                <path d="M275.677,322.645c-4.637,3.887 -8.787,3.923 -8.787,3.923c5.355,-3.769 7.854,-7.588 7.854,-7.588c-5.165,-3.187 -8.017,-1.195 -9.381,0.589c-0.591,0.774 -0.96,1.69 -1.244,2.621c-1.931,6.347 -7.648,8.569 -7.648,8.569c17.378,7.991 19.206,-8.114 19.206,-8.114Z" style="fill:rgb(35,31,32);fill-rule:nonzero;"/>
            </g>
            <g transform="matrix(2.6067,0,0,2.6067,-49.8708,-487.729)">
                <path d="M260.262,311.506c-4.637,3.888 -8.786,3.924 -8.786,3.924c5.353,-3.769 7.853,-7.588 7.853,-7.588c-5.165,-3.187 -8.017,-1.196 -9.38,0.589c-0.592,0.774 -0.961,1.689 -1.244,2.621c-1.932,6.347 -7.647,8.569 -7.647,8.569c17.375,7.991 19.204,-8.115 19.204,-8.115Z" style="fill:rgb(35,31,32);fill-rule:nonzero;"/>
            </g>
            <g transform="matrix(2.6067,0,0,2.6067,-49.8708,-487.729)">
                <path d="M235.28,310.902c-3.891,4.635 -7.971,5.391 -7.971,5.391c4.618,-4.642 6.416,-8.836 6.416,-8.836c-5.642,-2.242 -8.103,0.215 -9.136,2.21c-0.448,0.865 -0.652,1.83 -0.77,2.797c-0.798,6.586 -6.041,9.767 -6.041,9.767c18.5,4.85 17.502,-11.329 17.502,-11.329Z" style="fill:rgb(35,31,32);fill-rule:nonzero;"/>
            </g>
            <g transform="matrix(2.6067,0,0,2.6067,-49.8708,-487.729)">
                <path d="M297.996,347.219c3.004,5.253 2.303,9.343 2.303,9.343c-2.759,-5.937 -6.074,-9.075 -6.074,-9.075c-4.054,4.519 -2.599,7.679 -1.084,9.337c0.657,0.719 1.492,1.245 2.359,1.689c5.904,3.026 7.077,9.045 7.077,9.045c10.945,-15.684 -4.581,-20.339 -4.581,-20.339Z" style="fill:rgb(35,31,32);fill-rule:nonzero;"/>
            </g>
            <g transform="matrix(2.6067,0,0,2.6067,-49.8708,-487.729)">
                <path d="M296.849,324.861c4.606,3.925 5.332,8.01 5.332,8.01c-4.608,-4.652 -8.789,-6.481 -8.789,-6.481c-2.284,5.625 0.155,8.105 2.142,9.152c0.862,0.455 1.825,0.666 2.792,0.791c6.579,0.847 9.721,6.113 9.721,6.113c4.987,-18.464 -11.198,-17.585 -11.198,-17.585Z" style="fill:rgb(35,31,32);fill-rule:nonzero;"/>
            </g>
            <g transform="matrix(2.6067,0,0,2.6067,-49.8708,-487.729)">
                <path d="M292.475,299.647c4.606,3.926 5.332,8.011 5.332,8.011c-4.608,-4.652 -8.789,-6.481 -8.789,-6.481c-2.284,5.625 0.155,8.105 2.142,9.152c0.861,0.455 1.825,0.666 2.792,0.791c6.579,0.847 9.721,6.113 9.721,6.113c4.987,-18.464 -11.198,-17.586 -11.198,-17.586Z" style="fill:rgb(35,31,32);fill-rule:nonzero;"/>
            </g>
            <g transform="matrix(2.6067,0,0,2.6067,-49.8708,-487.729)">
                <path d="M294.416,287.264c-5.443,-3.639 -9.906,-4.597 -9.906,-4.597c-1.114,5.967 1.77,7.911 3.926,8.541c0.935,0.273 1.922,0.288 2.894,0.217c6.616,-0.482 10.745,4.051 10.745,4.051c1.202,-19.088 -14.482,-14.997 -14.482,-14.997c5.297,2.927 6.823,6.785 6.823,6.785Z" style="fill:rgb(35,31,32);fill-rule:nonzero;"/>
            </g>
            <g transform="matrix(2.6067,0,0,2.6067,-49.8708,-487.729)">
                <path d="M189.988,243.656c0.971,0.071 1.958,0.056 2.893,-0.218c2.156,-0.629 5.04,-2.573 3.926,-8.54c0,0 -4.463,0.958 -9.906,4.597c0,-0 1.527,-3.858 6.823,-6.786c-0,-0 -15.684,-4.09 -14.482,14.998c0,-0 4.13,-4.533 10.746,-4.051Z" style="fill:rgb(35,31,32);fill-rule:nonzero;"/>
            </g>
            <g transform="matrix(2.6067,0,0,2.6067,-49.8708,-487.729)">
                <path d="M188.115,269.198c0,-0 5.047,-3.484 11.384,-1.519c0.93,0.288 1.895,0.496 2.867,0.442c2.242,-0.127 5.491,-1.369 5.753,-7.433c0,-0 -4.563,-0.075 -10.688,2.24c-0,-0 2.359,-3.414 8.18,-5.069c-0,0 -14.356,-7.527 -17.496,11.339Z" style="fill:rgb(35,31,32);fill-rule:nonzero;"/>
            </g>
            <g transform="matrix(2.6067,0,0,2.6067,-49.8708,-487.729)">
                <path d="M190.244,296.026c0,0 3.406,-2.351 7.682,-1.025c0.628,0.195 1.28,0.335 1.936,0.298c1.513,-0.086 3.706,-0.924 3.883,-5.017c-0,-0 -3.08,-0.05 -7.214,1.513c0,-0 1.592,-2.305 5.521,-3.421c0,0 -9.689,-5.082 -11.808,7.652Z" style="fill:rgb(35,31,32);fill-rule:nonzero;"/>
            </g>
            <g transform="matrix(2.6067,0,0,2.6067,-49.8708,-487.729)">
                <path d="M274.191,285.971c0,0 -9.689,-5.081 -11.808,7.653c-0,0 3.406,-2.352 7.683,-1.026c0.628,0.195 1.279,0.335 1.935,0.298c1.514,-0.085 3.707,-0.923 3.883,-5.017c0,0 -3.08,-0.05 -7.214,1.513c0,0 1.593,-2.305 5.521,-3.421Z" style="fill:rgb(35,31,32);fill-rule:nonzero;"/>
            </g>
            <g transform="matrix(2.6067,0,0,2.6067,-49.8708,-487.729)">
                <path d="M253.672,274.112c-0,-0 -2.87,-10.557 -13.643,-3.444c0,0 4.041,0.895 5.98,4.932c0.285,0.592 0.625,1.165 1.099,1.621c1.093,1.05 3.199,2.087 6.318,-0.57c-0,0 -2.059,-2.291 -6.017,-4.256c-0,0 2.772,-0.402 6.263,1.717Z" style="fill:rgb(35,31,32);fill-rule:nonzero;"/>
            </g>
            <g transform="matrix(2.6067,0,0,2.6067,-49.8708,-487.729)">
                <path d="M222.946,292.099c0.393,1.464 1.663,3.439 5.705,2.774c0,-0 -0.581,-3.025 -2.957,-6.751c0,0 2.582,1.086 4.479,4.703c0,0 2.99,-10.524 -9.908,-9.992c-0,0 2.999,2.854 2.576,7.311c-0.062,0.654 -0.066,1.32 0.105,1.955Z" style="fill:rgb(35,31,32);fill-rule:nonzero;"/>
            </g>
            <g transform="matrix(2.6067,0,0,2.6067,-49.8708,-487.729)">
                <path d="M276.768,257.511c-5.953,-2.728 -10.51,-2.965 -10.51,-2.965c-0.154,6.068 3.003,7.529 5.232,7.808c0.966,0.122 1.943,-0.02 2.891,-0.244c6.455,-1.527 11.253,2.292 11.253,2.292c-1.845,-19.036 -16.68,-12.506 -16.68,-12.506c5.693,2.048 7.814,5.615 7.814,5.615Z" style="fill:rgb(35,31,32);fill-rule:nonzero;"/>
            </g>
            <g transform="matrix(2.6067,0,0,2.6067,-49.8708,-487.729)">
                <path d="M262.081,231.919c-6.548,-0.015 -10.794,1.658 -10.794,1.658c2.376,5.586 5.853,5.607 7.998,4.938c0.93,-0.291 1.76,-0.825 2.53,-1.422c5.242,-4.065 11.191,-2.577 11.191,-2.577c-9.569,-16.56 -20.364,-4.469 -20.364,-4.469c6.031,-0.495 9.439,1.872 9.439,1.872Z" style="fill:rgb(35,31,32);fill-rule:nonzero;"/>
            </g>
            <g transform="matrix(2.6067,0,0,2.6067,-49.8708,-487.729)">
                <path d="M239.461,215.049c-6.381,1.465 -10.14,4.055 -10.14,4.055c3.578,4.904 6.971,4.139 8.908,3.002c0.84,-0.493 1.528,-1.201 2.143,-1.957c4.187,-5.145 10.318,-5.041 10.318,-5.041c-13.065,-13.967 -20.847,0.252 -20.847,0.252c5.763,-1.847 9.618,-0.311 9.618,-0.311Z" style="fill:rgb(35,31,32);fill-rule:nonzero;"/>
            </g>
            <g transform="matrix(2.6067,0,0,2.6067,-49.8708,-487.729)">
                <path d="M216.262,206.845c-5.56,3.458 -8.274,7.127 -8.274,7.127c4.976,3.477 7.937,1.652 9.4,-0.053c0.634,-0.739 1.055,-1.631 1.391,-2.545c2.29,-6.227 8.123,-8.119 8.123,-8.119c-16.892,-8.969 -19.635,7.006 -19.635,7.006c4.851,-3.617 8.995,-3.416 8.995,-3.416Z" style="fill:rgb(35,31,32);fill-rule:nonzero;"/>
            </g>
            <g transform="matrix(2.6067,0,0,2.6067,-49.8708,-487.729)">
                <path d="M221.461,240.177c4.464,-1.384 7.43,-0.17 7.43,-0.17c-4.939,1.085 -7.861,3.058 -7.861,3.058c2.727,3.814 5.353,3.247 6.858,2.383c0.652,-0.374 1.189,-0.916 1.669,-1.495c3.272,-3.943 8.006,-3.818 8.006,-3.818c-9.988,-10.883 -16.102,0.042 -16.102,0.042Z" style="fill:rgb(35,31,32);fill-rule:nonzero;"/>
            </g>
            <g transform="matrix(2.6067,0,0,2.6067,-49.8708,-487.729)">
                <path d="M185.924,210.011c-2.414,4.445 -2.835,7.944 -2.835,7.944c4.668,0.435 5.959,-1.921 6.291,-3.623c0.144,-0.739 0.086,-1.499 -0.038,-2.241c-0.839,-5.055 2.355,-8.552 2.355,-8.552c-14.766,0.427 -10.509,12.2 -10.509,12.2c1.876,-4.281 4.736,-5.728 4.736,-5.728Z" style="fill:rgb(35,31,32);fill-rule:nonzero;"/>
            </g>
        </g>
    </g>
</svg>
